M48
INCH,TZ
T1C0.0118
T2C0.0157
T3C0.0197
T4C0.0217
T5C0.0394
T6C0.0469
%
G90
G05
T1
X61000Y-26173
X61000Y-26724
X61276Y-25898
X61276Y-26449
X61276Y-27000
X61551Y-26173
X61551Y-26724
X61827Y-25898
X61827Y-26449
X61827Y-27000
X62102Y-26173
X62102Y-26724
T2
X46300Y-38900
X47300Y-32600
X47800Y-26900
X51000Y-33500
X51000Y-38000
X52700Y-25700
X53000Y-28900
X53900Y-34600
X54000Y-39600
X54500Y-23400
X56000Y-28200
X56000Y-35100
X56600Y-25600
X56600Y-33500
X56600Y-37900
X57100Y-30700
X58400Y-24200
X58600Y-25500
X60900Y-36200
X61200Y-28700
X61200Y-31500
X61600Y-32300
X62000Y-23300
X62000Y-34440
X62700Y-28100
X62800Y-28800
X63100Y-25900
X63200Y-29300
X63400Y-25000
X64042Y-32703
X64200Y-36300
X64300Y-31400
X64400Y-30600
X64600Y-32400
X64700Y-31000
X65000Y-37900
X65100Y-29400
X65100Y-30000
X65100Y-33500
X65300Y-25400
X65300Y-28400
X66100Y-29500
X66600Y-28300
X66800Y-30200
X67100Y-32600
X67200Y-26400
X67200Y-28900
X67379Y-24300
X67500Y-32800
X67700Y-39300
X68000Y-28500
X68000Y-32700
X68000Y-36500
X68800Y-25900
X69000Y-33400
X69700Y-26700
X69900Y-28800
X70322Y-31978
X70600Y-26700
X70600Y-31700
X70900Y-33500
X70900Y-38000
X71000Y-31200
X71200Y-26400
X71300Y-23300
X71600Y-27100
X72300Y-26390
X72800Y-38000
X74100Y-33000
T5
X58244Y-33260
X59031Y-33260
X59819Y-33260
X60606Y-33260
X61394Y-33260
X62181Y-33260
X62969Y-33260
X63756Y-33260
T6
X45700Y-22008
X46700Y-22008
X66000Y-35000
X67000Y-35000
X68000Y-35000
X69000Y-35000
X70000Y-35000
X77000Y-26000
X77000Y-30000
X78000Y-26000
X78000Y-30000
T3
G00X59638Y-41028
M15
G01X59638Y-40772
M16
G05
G00X62394Y-41028
M15
G01X62394Y-40772
M16
G05
T4
G00X60091Y-39837
M15
G01X59972Y-39837
M16
G05
G00X62059Y-39837
M15
G01X61941Y-39837
M16
G05
T5
G00X45823Y-25012
M15
G01X45823Y-25642
M16
G05
G00X45823Y-28358
M15
G01X45823Y-28988
M16
G05
T0
M30
