G04 #@! TF.GenerationSoftware,KiCad,Pcbnew,(7.0.0)*
G04 #@! TF.CreationDate,2023-03-29T15:11:30-05:00*
G04 #@! TF.ProjectId,Phone_Audio_FM_Transmitter,50686f6e-655f-4417-9564-696f5f464d5f,2*
G04 #@! TF.SameCoordinates,Original*
G04 #@! TF.FileFunction,Soldermask,Top*
G04 #@! TF.FilePolarity,Negative*
%FSLAX46Y46*%
G04 Gerber Fmt 4.6, Leading zero omitted, Abs format (unit mm)*
G04 Created by KiCad (PCBNEW (7.0.0)) date 2023-03-29 15:11:30*
%MOMM*%
%LPD*%
G01*
G04 APERTURE LIST*
G04 Aperture macros list*
%AMRoundRect*
0 Rectangle with rounded corners*
0 $1 Rounding radius*
0 $2 $3 $4 $5 $6 $7 $8 $9 X,Y pos of 4 corners*
0 Add a 4 corners polygon primitive as box body*
4,1,4,$2,$3,$4,$5,$6,$7,$8,$9,$2,$3,0*
0 Add four circle primitives for the rounded corners*
1,1,$1+$1,$2,$3*
1,1,$1+$1,$4,$5*
1,1,$1+$1,$6,$7*
1,1,$1+$1,$8,$9*
0 Add four rect primitives between the rounded corners*
20,1,$1+$1,$2,$3,$4,$5,0*
20,1,$1+$1,$4,$5,$6,$7,0*
20,1,$1+$1,$6,$7,$8,$9,0*
20,1,$1+$1,$8,$9,$2,$3,0*%
G04 Aperture macros list end*
%ADD10RoundRect,0.250000X-0.350000X-0.450000X0.350000X-0.450000X0.350000X0.450000X-0.350000X0.450000X0*%
%ADD11C,3.200000*%
%ADD12RoundRect,0.250000X-0.337500X-0.475000X0.337500X-0.475000X0.337500X0.475000X-0.337500X0.475000X0*%
%ADD13RoundRect,0.250000X0.350000X0.450000X-0.350000X0.450000X-0.350000X-0.450000X0.350000X-0.450000X0*%
%ADD14RoundRect,0.250000X-0.620000X-0.845000X0.620000X-0.845000X0.620000X0.845000X-0.620000X0.845000X0*%
%ADD15O,1.740000X2.190000*%
%ADD16RoundRect,0.250000X0.337500X0.475000X-0.337500X0.475000X-0.337500X-0.475000X0.337500X-0.475000X0*%
%ADD17R,1.600000X1.400000*%
%ADD18C,2.500000*%
%ADD19R,1.600000X1.600000*%
%ADD20C,1.600000*%
%ADD21O,1.800000X3.400000*%
%ADD22RoundRect,0.250001X-0.462499X-0.624999X0.462499X-0.624999X0.462499X0.624999X-0.462499X0.624999X0*%
%ADD23O,1.550000X0.890000*%
%ADD24O,0.950000X1.250000*%
%ADD25RoundRect,0.250000X0.620000X0.845000X-0.620000X0.845000X-0.620000X-0.845000X0.620000X-0.845000X0*%
G04 APERTURE END LIST*
D10*
X194783200Y-90728800D03*
X196783200Y-90728800D03*
D11*
X113538000Y-100330000D03*
D12*
X186592300Y-94157800D03*
X188667300Y-94157800D03*
D11*
X113538000Y-49530000D03*
X196088000Y-49530000D03*
D13*
X188706000Y-98831400D03*
X186706000Y-98831400D03*
D14*
X195580000Y-76200000D03*
D15*
X198119999Y-76199999D03*
D16*
X138476900Y-94208600D03*
X136401900Y-94208600D03*
D13*
X173415200Y-98856800D03*
X171415200Y-98856800D03*
D17*
X184339999Y-98769999D03*
X176339999Y-98769999D03*
X184339999Y-94269999D03*
X176339999Y-94269999D03*
D18*
X122440000Y-55280000D03*
X122440000Y-88380000D03*
X187440000Y-55280000D03*
X187440000Y-88380000D03*
D19*
X161939999Y-84479999D03*
D20*
X159940000Y-84480000D03*
X157940000Y-84480000D03*
X155940000Y-84480000D03*
X153940000Y-84480000D03*
X151940000Y-84480000D03*
X149940000Y-84480000D03*
X147940000Y-84480000D03*
D21*
X116389999Y-72829999D03*
X116389999Y-64329999D03*
D17*
X133539999Y-98769999D03*
X125539999Y-98769999D03*
X133539999Y-94269999D03*
X125539999Y-94269999D03*
X148779999Y-98769999D03*
X140779999Y-98769999D03*
X148779999Y-94269999D03*
X140779999Y-94269999D03*
D12*
X171428500Y-94259400D03*
X173503500Y-94259400D03*
D10*
X136388600Y-98780600D03*
X138388600Y-98780600D03*
X121250200Y-98831400D03*
X123250200Y-98831400D03*
D14*
X194183000Y-57480200D03*
D15*
X196722999Y-57480199D03*
X199262999Y-57480199D03*
D22*
X195057700Y-86410800D03*
X198032700Y-86410800D03*
D11*
X196088000Y-100330000D03*
D14*
X195580000Y-66040000D03*
D15*
X198119999Y-66039999D03*
D16*
X123236900Y-94183200D03*
X121161900Y-94183200D03*
D17*
X169099999Y-98769999D03*
X161099999Y-98769999D03*
X169099999Y-94269999D03*
X161099999Y-94269999D03*
D23*
X110053599Y-72181599D03*
D24*
X112753599Y-71181599D03*
X112753599Y-66181599D03*
D23*
X110053599Y-65181599D03*
D25*
X115214400Y-55569800D03*
D15*
X112674399Y-55569799D03*
D25*
X177800000Y-88900000D03*
D15*
X175259999Y-88899999D03*
X172719999Y-88899999D03*
X170179999Y-88899999D03*
X167639999Y-88899999D03*
M02*
