M48
INCH,TZ
T1C0.0118
T2C0.0157
T3C0.0197
T4C0.0217
T5C0.0394
T6C0.0469
%
G90
G05
T1
X61267Y-26024
X61267Y-26624
X61568Y-25724
X61568Y-26324
X61568Y-26924
X61868Y-26024
X61868Y-26624
X62168Y-25724
X62168Y-26324
X62168Y-26924
X62468Y-26024
X62468Y-26624
T2
X43980Y-23660
X45430Y-35100
X46660Y-20210
X47110Y-29080
X47550Y-31120
X47660Y-27326
X47890Y-26030
X48410Y-25990
X48410Y-27060
X48880Y-24730
X48990Y-30440
X49080Y-27040
X49160Y-26000
X49390Y-24880
X49420Y-24050
X49950Y-31720
X49970Y-30430
X50210Y-27410
X50410Y-34730
X50910Y-37930
X51670Y-24080
X52070Y-25810
X52720Y-40700
X53020Y-29790
X53030Y-27930
X54310Y-33660
X55520Y-23850
X55520Y-26230
X57160Y-31170
X57470Y-23940
X57470Y-28940
X57490Y-27434
X57500Y-26934
X57520Y-24920
X57540Y-25934
X60100Y-28720
X60190Y-24110
X60640Y-38240
X63280Y-24110
X63290Y-28660
X64410Y-30410
X64490Y-40620
X65720Y-25620
X65740Y-26080
X66750Y-28410
X67300Y-31450
X67860Y-26260
X67860Y-27060
X68490Y-25924
X68860Y-24350
X68890Y-29570
X68900Y-25283
X68990Y-28440
X69550Y-27820
X69570Y-23250
X70210Y-26960
X70240Y-27900
X70470Y-32450
X70550Y-28900
X70620Y-24040
X70760Y-24630
X70770Y-38040
X70820Y-26740
X70860Y-32050
X71450Y-26210
X71460Y-26800
X71630Y-30380
X71940Y-35150
X72130Y-23610
X73650Y-33010
X74210Y-28200
X74880Y-20270
X75460Y-23580
X76200Y-28090
X76300Y-37060
X77800Y-37110
X78250Y-32670
X78530Y-24360
T5
X58244Y-33260
X59031Y-33260
X59819Y-33260
X60606Y-33260
X61394Y-33260
X62181Y-33260
X62969Y-33260
X63756Y-33260
T6
X44360Y-21878
X45360Y-21878
X66000Y-35000
X67000Y-35000
X68000Y-35000
X69000Y-35000
X70000Y-35000
X76450Y-22630
X77000Y-26000
X77000Y-30000
X77450Y-22630
X78000Y-26000
X78000Y-30000
X78450Y-22630
T3
G00X43200Y-25662
M15
G01X43456Y-25662
M16
G05
G00X43200Y-28418
M15
G01X43456Y-28418
M16
G05
T4
G00X44391Y-26115
M15
G01X44391Y-25997
M16
G05
G00X44391Y-28083
M15
G01X44391Y-27965
M16
G05
T5
G00X45823Y-25012
M15
G01X45823Y-25642
M16
G05
G00X45823Y-28358
M15
G01X45823Y-28988
M16
G05
T0
M30
