G04 #@! TF.GenerationSoftware,KiCad,Pcbnew,(7.0.0)*
G04 #@! TF.CreationDate,2023-03-05T16:48:56-06:00*
G04 #@! TF.ProjectId,Phone_Audio_FM_Transmitter,50686f6e-655f-4417-9564-696f5f464d5f,1*
G04 #@! TF.SameCoordinates,Original*
G04 #@! TF.FileFunction,Legend,Bot*
G04 #@! TF.FilePolarity,Positive*
%FSLAX46Y46*%
G04 Gerber Fmt 4.6, Leading zero omitted, Abs format (unit mm)*
G04 Created by KiCad (PCBNEW (7.0.0)) date 2023-03-05 16:48:56*
%MOMM*%
%LPD*%
G01*
G04 APERTURE LIST*
%ADD10C,0.150000*%
%ADD11C,0.120000*%
G04 APERTURE END LIST*
D10*
X172632666Y-64026142D02*
X172680285Y-64073761D01*
X172680285Y-64073761D02*
X172823142Y-64121380D01*
X172823142Y-64121380D02*
X172918380Y-64121380D01*
X172918380Y-64121380D02*
X173061237Y-64073761D01*
X173061237Y-64073761D02*
X173156475Y-63978523D01*
X173156475Y-63978523D02*
X173204094Y-63883285D01*
X173204094Y-63883285D02*
X173251713Y-63692809D01*
X173251713Y-63692809D02*
X173251713Y-63549952D01*
X173251713Y-63549952D02*
X173204094Y-63359476D01*
X173204094Y-63359476D02*
X173156475Y-63264238D01*
X173156475Y-63264238D02*
X173061237Y-63169000D01*
X173061237Y-63169000D02*
X172918380Y-63121380D01*
X172918380Y-63121380D02*
X172823142Y-63121380D01*
X172823142Y-63121380D02*
X172680285Y-63169000D01*
X172680285Y-63169000D02*
X172632666Y-63216619D01*
X171775523Y-63454714D02*
X171775523Y-64121380D01*
X172013618Y-63073761D02*
X172251713Y-63788047D01*
X172251713Y-63788047D02*
X171632666Y-63788047D01*
X153129166Y-81952142D02*
X153176785Y-81999761D01*
X153176785Y-81999761D02*
X153319642Y-82047380D01*
X153319642Y-82047380D02*
X153414880Y-82047380D01*
X153414880Y-82047380D02*
X153557737Y-81999761D01*
X153557737Y-81999761D02*
X153652975Y-81904523D01*
X153652975Y-81904523D02*
X153700594Y-81809285D01*
X153700594Y-81809285D02*
X153748213Y-81618809D01*
X153748213Y-81618809D02*
X153748213Y-81475952D01*
X153748213Y-81475952D02*
X153700594Y-81285476D01*
X153700594Y-81285476D02*
X153652975Y-81190238D01*
X153652975Y-81190238D02*
X153557737Y-81095000D01*
X153557737Y-81095000D02*
X153414880Y-81047380D01*
X153414880Y-81047380D02*
X153319642Y-81047380D01*
X153319642Y-81047380D02*
X153176785Y-81095000D01*
X153176785Y-81095000D02*
X153129166Y-81142619D01*
X152224404Y-81047380D02*
X152700594Y-81047380D01*
X152700594Y-81047380D02*
X152748213Y-81523571D01*
X152748213Y-81523571D02*
X152700594Y-81475952D01*
X152700594Y-81475952D02*
X152605356Y-81428333D01*
X152605356Y-81428333D02*
X152367261Y-81428333D01*
X152367261Y-81428333D02*
X152272023Y-81475952D01*
X152272023Y-81475952D02*
X152224404Y-81523571D01*
X152224404Y-81523571D02*
X152176785Y-81618809D01*
X152176785Y-81618809D02*
X152176785Y-81856904D01*
X152176785Y-81856904D02*
X152224404Y-81952142D01*
X152224404Y-81952142D02*
X152272023Y-81999761D01*
X152272023Y-81999761D02*
X152367261Y-82047380D01*
X152367261Y-82047380D02*
X152605356Y-82047380D01*
X152605356Y-82047380D02*
X152700594Y-81999761D01*
X152700594Y-81999761D02*
X152748213Y-81952142D01*
X131198857Y-80790142D02*
X131246476Y-80837761D01*
X131246476Y-80837761D02*
X131389333Y-80885380D01*
X131389333Y-80885380D02*
X131484571Y-80885380D01*
X131484571Y-80885380D02*
X131627428Y-80837761D01*
X131627428Y-80837761D02*
X131722666Y-80742523D01*
X131722666Y-80742523D02*
X131770285Y-80647285D01*
X131770285Y-80647285D02*
X131817904Y-80456809D01*
X131817904Y-80456809D02*
X131817904Y-80313952D01*
X131817904Y-80313952D02*
X131770285Y-80123476D01*
X131770285Y-80123476D02*
X131722666Y-80028238D01*
X131722666Y-80028238D02*
X131627428Y-79933000D01*
X131627428Y-79933000D02*
X131484571Y-79885380D01*
X131484571Y-79885380D02*
X131389333Y-79885380D01*
X131389333Y-79885380D02*
X131246476Y-79933000D01*
X131246476Y-79933000D02*
X131198857Y-79980619D01*
X130246476Y-80885380D02*
X130817904Y-80885380D01*
X130532190Y-80885380D02*
X130532190Y-79885380D01*
X130532190Y-79885380D02*
X130627428Y-80028238D01*
X130627428Y-80028238D02*
X130722666Y-80123476D01*
X130722666Y-80123476D02*
X130817904Y-80171095D01*
X129389333Y-79885380D02*
X129579809Y-79885380D01*
X129579809Y-79885380D02*
X129675047Y-79933000D01*
X129675047Y-79933000D02*
X129722666Y-79980619D01*
X129722666Y-79980619D02*
X129817904Y-80123476D01*
X129817904Y-80123476D02*
X129865523Y-80313952D01*
X129865523Y-80313952D02*
X129865523Y-80694904D01*
X129865523Y-80694904D02*
X129817904Y-80790142D01*
X129817904Y-80790142D02*
X129770285Y-80837761D01*
X129770285Y-80837761D02*
X129675047Y-80885380D01*
X129675047Y-80885380D02*
X129484571Y-80885380D01*
X129484571Y-80885380D02*
X129389333Y-80837761D01*
X129389333Y-80837761D02*
X129341714Y-80790142D01*
X129341714Y-80790142D02*
X129294095Y-80694904D01*
X129294095Y-80694904D02*
X129294095Y-80456809D01*
X129294095Y-80456809D02*
X129341714Y-80361571D01*
X129341714Y-80361571D02*
X129389333Y-80313952D01*
X129389333Y-80313952D02*
X129484571Y-80266333D01*
X129484571Y-80266333D02*
X129675047Y-80266333D01*
X129675047Y-80266333D02*
X129770285Y-80313952D01*
X129770285Y-80313952D02*
X129817904Y-80361571D01*
X129817904Y-80361571D02*
X129865523Y-80456809D01*
X139687380Y-74017142D02*
X139211190Y-73683809D01*
X139687380Y-73445714D02*
X138687380Y-73445714D01*
X138687380Y-73445714D02*
X138687380Y-73826666D01*
X138687380Y-73826666D02*
X138735000Y-73921904D01*
X138735000Y-73921904D02*
X138782619Y-73969523D01*
X138782619Y-73969523D02*
X138877857Y-74017142D01*
X138877857Y-74017142D02*
X139020714Y-74017142D01*
X139020714Y-74017142D02*
X139115952Y-73969523D01*
X139115952Y-73969523D02*
X139163571Y-73921904D01*
X139163571Y-73921904D02*
X139211190Y-73826666D01*
X139211190Y-73826666D02*
X139211190Y-73445714D01*
X139687380Y-74969523D02*
X139687380Y-74398095D01*
X139687380Y-74683809D02*
X138687380Y-74683809D01*
X138687380Y-74683809D02*
X138830238Y-74588571D01*
X138830238Y-74588571D02*
X138925476Y-74493333D01*
X138925476Y-74493333D02*
X138973095Y-74398095D01*
X139687380Y-75921904D02*
X139687380Y-75350476D01*
X139687380Y-75636190D02*
X138687380Y-75636190D01*
X138687380Y-75636190D02*
X138830238Y-75540952D01*
X138830238Y-75540952D02*
X138925476Y-75445714D01*
X138925476Y-75445714D02*
X138973095Y-75350476D01*
X126372857Y-71624642D02*
X126420476Y-71672261D01*
X126420476Y-71672261D02*
X126563333Y-71719880D01*
X126563333Y-71719880D02*
X126658571Y-71719880D01*
X126658571Y-71719880D02*
X126801428Y-71672261D01*
X126801428Y-71672261D02*
X126896666Y-71577023D01*
X126896666Y-71577023D02*
X126944285Y-71481785D01*
X126944285Y-71481785D02*
X126991904Y-71291309D01*
X126991904Y-71291309D02*
X126991904Y-71148452D01*
X126991904Y-71148452D02*
X126944285Y-70957976D01*
X126944285Y-70957976D02*
X126896666Y-70862738D01*
X126896666Y-70862738D02*
X126801428Y-70767500D01*
X126801428Y-70767500D02*
X126658571Y-70719880D01*
X126658571Y-70719880D02*
X126563333Y-70719880D01*
X126563333Y-70719880D02*
X126420476Y-70767500D01*
X126420476Y-70767500D02*
X126372857Y-70815119D01*
X125420476Y-71719880D02*
X125991904Y-71719880D01*
X125706190Y-71719880D02*
X125706190Y-70719880D01*
X125706190Y-70719880D02*
X125801428Y-70862738D01*
X125801428Y-70862738D02*
X125896666Y-70957976D01*
X125896666Y-70957976D02*
X125991904Y-71005595D01*
X125039523Y-70815119D02*
X124991904Y-70767500D01*
X124991904Y-70767500D02*
X124896666Y-70719880D01*
X124896666Y-70719880D02*
X124658571Y-70719880D01*
X124658571Y-70719880D02*
X124563333Y-70767500D01*
X124563333Y-70767500D02*
X124515714Y-70815119D01*
X124515714Y-70815119D02*
X124468095Y-70910357D01*
X124468095Y-70910357D02*
X124468095Y-71005595D01*
X124468095Y-71005595D02*
X124515714Y-71148452D01*
X124515714Y-71148452D02*
X125087142Y-71719880D01*
X125087142Y-71719880D02*
X124468095Y-71719880D01*
X182792666Y-83933380D02*
X183268856Y-83933380D01*
X183268856Y-83933380D02*
X183268856Y-82933380D01*
X182506951Y-83028619D02*
X182459332Y-82981000D01*
X182459332Y-82981000D02*
X182364094Y-82933380D01*
X182364094Y-82933380D02*
X182125999Y-82933380D01*
X182125999Y-82933380D02*
X182030761Y-82981000D01*
X182030761Y-82981000D02*
X181983142Y-83028619D01*
X181983142Y-83028619D02*
X181935523Y-83123857D01*
X181935523Y-83123857D02*
X181935523Y-83219095D01*
X181935523Y-83219095D02*
X181983142Y-83361952D01*
X181983142Y-83361952D02*
X182554570Y-83933380D01*
X182554570Y-83933380D02*
X181935523Y-83933380D01*
X132310094Y-67551380D02*
X132310094Y-66551380D01*
X132310094Y-66551380D02*
X132071999Y-66551380D01*
X132071999Y-66551380D02*
X131929142Y-66599000D01*
X131929142Y-66599000D02*
X131833904Y-66694238D01*
X131833904Y-66694238D02*
X131786285Y-66789476D01*
X131786285Y-66789476D02*
X131738666Y-66979952D01*
X131738666Y-66979952D02*
X131738666Y-67122809D01*
X131738666Y-67122809D02*
X131786285Y-67313285D01*
X131786285Y-67313285D02*
X131833904Y-67408523D01*
X131833904Y-67408523D02*
X131929142Y-67503761D01*
X131929142Y-67503761D02*
X132071999Y-67551380D01*
X132071999Y-67551380D02*
X132310094Y-67551380D01*
X131357713Y-66646619D02*
X131310094Y-66599000D01*
X131310094Y-66599000D02*
X131214856Y-66551380D01*
X131214856Y-66551380D02*
X130976761Y-66551380D01*
X130976761Y-66551380D02*
X130881523Y-66599000D01*
X130881523Y-66599000D02*
X130833904Y-66646619D01*
X130833904Y-66646619D02*
X130786285Y-66741857D01*
X130786285Y-66741857D02*
X130786285Y-66837095D01*
X130786285Y-66837095D02*
X130833904Y-66979952D01*
X130833904Y-66979952D02*
X131405332Y-67551380D01*
X131405332Y-67551380D02*
X130786285Y-67551380D01*
X128944666Y-71741380D02*
X129420856Y-71741380D01*
X129420856Y-71741380D02*
X129420856Y-70741380D01*
X128706570Y-70741380D02*
X128087523Y-70741380D01*
X128087523Y-70741380D02*
X128420856Y-71122333D01*
X128420856Y-71122333D02*
X128277999Y-71122333D01*
X128277999Y-71122333D02*
X128182761Y-71169952D01*
X128182761Y-71169952D02*
X128135142Y-71217571D01*
X128135142Y-71217571D02*
X128087523Y-71312809D01*
X128087523Y-71312809D02*
X128087523Y-71550904D01*
X128087523Y-71550904D02*
X128135142Y-71646142D01*
X128135142Y-71646142D02*
X128182761Y-71693761D01*
X128182761Y-71693761D02*
X128277999Y-71741380D01*
X128277999Y-71741380D02*
X128563713Y-71741380D01*
X128563713Y-71741380D02*
X128658951Y-71693761D01*
X128658951Y-71693761D02*
X128706570Y-71646142D01*
X155313333Y-98453380D02*
X155313333Y-99167666D01*
X155313333Y-99167666D02*
X155360952Y-99310523D01*
X155360952Y-99310523D02*
X155456190Y-99405761D01*
X155456190Y-99405761D02*
X155599047Y-99453380D01*
X155599047Y-99453380D02*
X155694285Y-99453380D01*
X154408571Y-98786714D02*
X154408571Y-99453380D01*
X154646666Y-98405761D02*
X154884761Y-99120047D01*
X154884761Y-99120047D02*
X154265714Y-99120047D01*
X158129166Y-81952142D02*
X158176785Y-81999761D01*
X158176785Y-81999761D02*
X158319642Y-82047380D01*
X158319642Y-82047380D02*
X158414880Y-82047380D01*
X158414880Y-82047380D02*
X158557737Y-81999761D01*
X158557737Y-81999761D02*
X158652975Y-81904523D01*
X158652975Y-81904523D02*
X158700594Y-81809285D01*
X158700594Y-81809285D02*
X158748213Y-81618809D01*
X158748213Y-81618809D02*
X158748213Y-81475952D01*
X158748213Y-81475952D02*
X158700594Y-81285476D01*
X158700594Y-81285476D02*
X158652975Y-81190238D01*
X158652975Y-81190238D02*
X158557737Y-81095000D01*
X158557737Y-81095000D02*
X158414880Y-81047380D01*
X158414880Y-81047380D02*
X158319642Y-81047380D01*
X158319642Y-81047380D02*
X158176785Y-81095000D01*
X158176785Y-81095000D02*
X158129166Y-81142619D01*
X157272023Y-81047380D02*
X157462499Y-81047380D01*
X157462499Y-81047380D02*
X157557737Y-81095000D01*
X157557737Y-81095000D02*
X157605356Y-81142619D01*
X157605356Y-81142619D02*
X157700594Y-81285476D01*
X157700594Y-81285476D02*
X157748213Y-81475952D01*
X157748213Y-81475952D02*
X157748213Y-81856904D01*
X157748213Y-81856904D02*
X157700594Y-81952142D01*
X157700594Y-81952142D02*
X157652975Y-81999761D01*
X157652975Y-81999761D02*
X157557737Y-82047380D01*
X157557737Y-82047380D02*
X157367261Y-82047380D01*
X157367261Y-82047380D02*
X157272023Y-81999761D01*
X157272023Y-81999761D02*
X157224404Y-81952142D01*
X157224404Y-81952142D02*
X157176785Y-81856904D01*
X157176785Y-81856904D02*
X157176785Y-81618809D01*
X157176785Y-81618809D02*
X157224404Y-81523571D01*
X157224404Y-81523571D02*
X157272023Y-81475952D01*
X157272023Y-81475952D02*
X157367261Y-81428333D01*
X157367261Y-81428333D02*
X157557737Y-81428333D01*
X157557737Y-81428333D02*
X157652975Y-81475952D01*
X157652975Y-81475952D02*
X157700594Y-81523571D01*
X157700594Y-81523571D02*
X157748213Y-81618809D01*
X186515333Y-61647380D02*
X186515333Y-62361666D01*
X186515333Y-62361666D02*
X186562952Y-62504523D01*
X186562952Y-62504523D02*
X186658190Y-62599761D01*
X186658190Y-62599761D02*
X186801047Y-62647380D01*
X186801047Y-62647380D02*
X186896285Y-62647380D01*
X186086761Y-61742619D02*
X186039142Y-61695000D01*
X186039142Y-61695000D02*
X185943904Y-61647380D01*
X185943904Y-61647380D02*
X185705809Y-61647380D01*
X185705809Y-61647380D02*
X185610571Y-61695000D01*
X185610571Y-61695000D02*
X185562952Y-61742619D01*
X185562952Y-61742619D02*
X185515333Y-61837857D01*
X185515333Y-61837857D02*
X185515333Y-61933095D01*
X185515333Y-61933095D02*
X185562952Y-62075952D01*
X185562952Y-62075952D02*
X186134380Y-62647380D01*
X186134380Y-62647380D02*
X185515333Y-62647380D01*
X167552666Y-64026142D02*
X167600285Y-64073761D01*
X167600285Y-64073761D02*
X167743142Y-64121380D01*
X167743142Y-64121380D02*
X167838380Y-64121380D01*
X167838380Y-64121380D02*
X167981237Y-64073761D01*
X167981237Y-64073761D02*
X168076475Y-63978523D01*
X168076475Y-63978523D02*
X168124094Y-63883285D01*
X168124094Y-63883285D02*
X168171713Y-63692809D01*
X168171713Y-63692809D02*
X168171713Y-63549952D01*
X168171713Y-63549952D02*
X168124094Y-63359476D01*
X168124094Y-63359476D02*
X168076475Y-63264238D01*
X168076475Y-63264238D02*
X167981237Y-63169000D01*
X167981237Y-63169000D02*
X167838380Y-63121380D01*
X167838380Y-63121380D02*
X167743142Y-63121380D01*
X167743142Y-63121380D02*
X167600285Y-63169000D01*
X167600285Y-63169000D02*
X167552666Y-63216619D01*
X167219332Y-63121380D02*
X166600285Y-63121380D01*
X166600285Y-63121380D02*
X166933618Y-63502333D01*
X166933618Y-63502333D02*
X166790761Y-63502333D01*
X166790761Y-63502333D02*
X166695523Y-63549952D01*
X166695523Y-63549952D02*
X166647904Y-63597571D01*
X166647904Y-63597571D02*
X166600285Y-63692809D01*
X166600285Y-63692809D02*
X166600285Y-63930904D01*
X166600285Y-63930904D02*
X166647904Y-64026142D01*
X166647904Y-64026142D02*
X166695523Y-64073761D01*
X166695523Y-64073761D02*
X166790761Y-64121380D01*
X166790761Y-64121380D02*
X167076475Y-64121380D01*
X167076475Y-64121380D02*
X167171713Y-64073761D01*
X167171713Y-64073761D02*
X167219332Y-64026142D01*
X115697048Y-52083571D02*
X116458953Y-52083571D01*
X118237048Y-52083571D02*
X118998953Y-52083571D01*
X118618000Y-51702619D02*
X118618000Y-52464523D01*
X176442666Y-83838142D02*
X176490285Y-83885761D01*
X176490285Y-83885761D02*
X176633142Y-83933380D01*
X176633142Y-83933380D02*
X176728380Y-83933380D01*
X176728380Y-83933380D02*
X176871237Y-83885761D01*
X176871237Y-83885761D02*
X176966475Y-83790523D01*
X176966475Y-83790523D02*
X177014094Y-83695285D01*
X177014094Y-83695285D02*
X177061713Y-83504809D01*
X177061713Y-83504809D02*
X177061713Y-83361952D01*
X177061713Y-83361952D02*
X177014094Y-83171476D01*
X177014094Y-83171476D02*
X176966475Y-83076238D01*
X176966475Y-83076238D02*
X176871237Y-82981000D01*
X176871237Y-82981000D02*
X176728380Y-82933380D01*
X176728380Y-82933380D02*
X176633142Y-82933380D01*
X176633142Y-82933380D02*
X176490285Y-82981000D01*
X176490285Y-82981000D02*
X176442666Y-83028619D01*
X176061713Y-83028619D02*
X176014094Y-82981000D01*
X176014094Y-82981000D02*
X175918856Y-82933380D01*
X175918856Y-82933380D02*
X175680761Y-82933380D01*
X175680761Y-82933380D02*
X175585523Y-82981000D01*
X175585523Y-82981000D02*
X175537904Y-83028619D01*
X175537904Y-83028619D02*
X175490285Y-83123857D01*
X175490285Y-83123857D02*
X175490285Y-83219095D01*
X175490285Y-83219095D02*
X175537904Y-83361952D01*
X175537904Y-83361952D02*
X176109332Y-83933380D01*
X176109332Y-83933380D02*
X175490285Y-83933380D01*
X178873904Y-74287380D02*
X178873904Y-75096904D01*
X178873904Y-75096904D02*
X178826285Y-75192142D01*
X178826285Y-75192142D02*
X178778666Y-75239761D01*
X178778666Y-75239761D02*
X178683428Y-75287380D01*
X178683428Y-75287380D02*
X178492952Y-75287380D01*
X178492952Y-75287380D02*
X178397714Y-75239761D01*
X178397714Y-75239761D02*
X178350095Y-75192142D01*
X178350095Y-75192142D02*
X178302476Y-75096904D01*
X178302476Y-75096904D02*
X178302476Y-74287380D01*
X177921523Y-74287380D02*
X177302476Y-74287380D01*
X177302476Y-74287380D02*
X177635809Y-74668333D01*
X177635809Y-74668333D02*
X177492952Y-74668333D01*
X177492952Y-74668333D02*
X177397714Y-74715952D01*
X177397714Y-74715952D02*
X177350095Y-74763571D01*
X177350095Y-74763571D02*
X177302476Y-74858809D01*
X177302476Y-74858809D02*
X177302476Y-75096904D01*
X177302476Y-75096904D02*
X177350095Y-75192142D01*
X177350095Y-75192142D02*
X177397714Y-75239761D01*
X177397714Y-75239761D02*
X177492952Y-75287380D01*
X177492952Y-75287380D02*
X177778666Y-75287380D01*
X177778666Y-75287380D02*
X177873904Y-75239761D01*
X177873904Y-75239761D02*
X177921523Y-75192142D01*
X148166666Y-82272142D02*
X148214285Y-82319761D01*
X148214285Y-82319761D02*
X148357142Y-82367380D01*
X148357142Y-82367380D02*
X148452380Y-82367380D01*
X148452380Y-82367380D02*
X148595237Y-82319761D01*
X148595237Y-82319761D02*
X148690475Y-82224523D01*
X148690475Y-82224523D02*
X148738094Y-82129285D01*
X148738094Y-82129285D02*
X148785713Y-81938809D01*
X148785713Y-81938809D02*
X148785713Y-81795952D01*
X148785713Y-81795952D02*
X148738094Y-81605476D01*
X148738094Y-81605476D02*
X148690475Y-81510238D01*
X148690475Y-81510238D02*
X148595237Y-81415000D01*
X148595237Y-81415000D02*
X148452380Y-81367380D01*
X148452380Y-81367380D02*
X148357142Y-81367380D01*
X148357142Y-81367380D02*
X148214285Y-81415000D01*
X148214285Y-81415000D02*
X148166666Y-81462619D01*
X147833332Y-81367380D02*
X147166666Y-81367380D01*
X147166666Y-81367380D02*
X147595237Y-82367380D01*
X155574904Y-63248380D02*
X155574904Y-64057904D01*
X155574904Y-64057904D02*
X155527285Y-64153142D01*
X155527285Y-64153142D02*
X155479666Y-64200761D01*
X155479666Y-64200761D02*
X155384428Y-64248380D01*
X155384428Y-64248380D02*
X155193952Y-64248380D01*
X155193952Y-64248380D02*
X155098714Y-64200761D01*
X155098714Y-64200761D02*
X155051095Y-64153142D01*
X155051095Y-64153142D02*
X155003476Y-64057904D01*
X155003476Y-64057904D02*
X155003476Y-63248380D01*
X154098714Y-63581714D02*
X154098714Y-64248380D01*
X154336809Y-63200761D02*
X154574904Y-63915047D01*
X154574904Y-63915047D02*
X153955857Y-63915047D01*
X135749357Y-80790142D02*
X135796976Y-80837761D01*
X135796976Y-80837761D02*
X135939833Y-80885380D01*
X135939833Y-80885380D02*
X136035071Y-80885380D01*
X136035071Y-80885380D02*
X136177928Y-80837761D01*
X136177928Y-80837761D02*
X136273166Y-80742523D01*
X136273166Y-80742523D02*
X136320785Y-80647285D01*
X136320785Y-80647285D02*
X136368404Y-80456809D01*
X136368404Y-80456809D02*
X136368404Y-80313952D01*
X136368404Y-80313952D02*
X136320785Y-80123476D01*
X136320785Y-80123476D02*
X136273166Y-80028238D01*
X136273166Y-80028238D02*
X136177928Y-79933000D01*
X136177928Y-79933000D02*
X136035071Y-79885380D01*
X136035071Y-79885380D02*
X135939833Y-79885380D01*
X135939833Y-79885380D02*
X135796976Y-79933000D01*
X135796976Y-79933000D02*
X135749357Y-79980619D01*
X134796976Y-80885380D02*
X135368404Y-80885380D01*
X135082690Y-80885380D02*
X135082690Y-79885380D01*
X135082690Y-79885380D02*
X135177928Y-80028238D01*
X135177928Y-80028238D02*
X135273166Y-80123476D01*
X135273166Y-80123476D02*
X135368404Y-80171095D01*
X133939833Y-80218714D02*
X133939833Y-80885380D01*
X134177928Y-79837761D02*
X134416023Y-80552047D01*
X134416023Y-80552047D02*
X133796976Y-80552047D01*
X180506666Y-73265380D02*
X180982856Y-73265380D01*
X180982856Y-73265380D02*
X180982856Y-72265380D01*
X179649523Y-73265380D02*
X180220951Y-73265380D01*
X179935237Y-73265380D02*
X179935237Y-72265380D01*
X179935237Y-72265380D02*
X180030475Y-72408238D01*
X180030475Y-72408238D02*
X180125713Y-72503476D01*
X180125713Y-72503476D02*
X180220951Y-72551095D01*
X123324857Y-71719880D02*
X123658190Y-71243690D01*
X123896285Y-71719880D02*
X123896285Y-70719880D01*
X123896285Y-70719880D02*
X123515333Y-70719880D01*
X123515333Y-70719880D02*
X123420095Y-70767500D01*
X123420095Y-70767500D02*
X123372476Y-70815119D01*
X123372476Y-70815119D02*
X123324857Y-70910357D01*
X123324857Y-70910357D02*
X123324857Y-71053214D01*
X123324857Y-71053214D02*
X123372476Y-71148452D01*
X123372476Y-71148452D02*
X123420095Y-71196071D01*
X123420095Y-71196071D02*
X123515333Y-71243690D01*
X123515333Y-71243690D02*
X123896285Y-71243690D01*
X122372476Y-71719880D02*
X122943904Y-71719880D01*
X122658190Y-71719880D02*
X122658190Y-70719880D01*
X122658190Y-70719880D02*
X122753428Y-70862738D01*
X122753428Y-70862738D02*
X122848666Y-70957976D01*
X122848666Y-70957976D02*
X122943904Y-71005595D01*
X121991523Y-70815119D02*
X121943904Y-70767500D01*
X121943904Y-70767500D02*
X121848666Y-70719880D01*
X121848666Y-70719880D02*
X121610571Y-70719880D01*
X121610571Y-70719880D02*
X121515333Y-70767500D01*
X121515333Y-70767500D02*
X121467714Y-70815119D01*
X121467714Y-70815119D02*
X121420095Y-70910357D01*
X121420095Y-70910357D02*
X121420095Y-71005595D01*
X121420095Y-71005595D02*
X121467714Y-71148452D01*
X121467714Y-71148452D02*
X122039142Y-71719880D01*
X122039142Y-71719880D02*
X121420095Y-71719880D01*
X142374857Y-67328142D02*
X142422476Y-67375761D01*
X142422476Y-67375761D02*
X142565333Y-67423380D01*
X142565333Y-67423380D02*
X142660571Y-67423380D01*
X142660571Y-67423380D02*
X142803428Y-67375761D01*
X142803428Y-67375761D02*
X142898666Y-67280523D01*
X142898666Y-67280523D02*
X142946285Y-67185285D01*
X142946285Y-67185285D02*
X142993904Y-66994809D01*
X142993904Y-66994809D02*
X142993904Y-66851952D01*
X142993904Y-66851952D02*
X142946285Y-66661476D01*
X142946285Y-66661476D02*
X142898666Y-66566238D01*
X142898666Y-66566238D02*
X142803428Y-66471000D01*
X142803428Y-66471000D02*
X142660571Y-66423380D01*
X142660571Y-66423380D02*
X142565333Y-66423380D01*
X142565333Y-66423380D02*
X142422476Y-66471000D01*
X142422476Y-66471000D02*
X142374857Y-66518619D01*
X141422476Y-67423380D02*
X141993904Y-67423380D01*
X141708190Y-67423380D02*
X141708190Y-66423380D01*
X141708190Y-66423380D02*
X141803428Y-66566238D01*
X141803428Y-66566238D02*
X141898666Y-66661476D01*
X141898666Y-66661476D02*
X141993904Y-66709095D01*
X141089142Y-66423380D02*
X140470095Y-66423380D01*
X140470095Y-66423380D02*
X140803428Y-66804333D01*
X140803428Y-66804333D02*
X140660571Y-66804333D01*
X140660571Y-66804333D02*
X140565333Y-66851952D01*
X140565333Y-66851952D02*
X140517714Y-66899571D01*
X140517714Y-66899571D02*
X140470095Y-66994809D01*
X140470095Y-66994809D02*
X140470095Y-67232904D01*
X140470095Y-67232904D02*
X140517714Y-67328142D01*
X140517714Y-67328142D02*
X140565333Y-67375761D01*
X140565333Y-67375761D02*
X140660571Y-67423380D01*
X140660571Y-67423380D02*
X140946285Y-67423380D01*
X140946285Y-67423380D02*
X141041523Y-67375761D01*
X141041523Y-67375761D02*
X141089142Y-67328142D01*
X138332357Y-67426142D02*
X138379976Y-67473761D01*
X138379976Y-67473761D02*
X138522833Y-67521380D01*
X138522833Y-67521380D02*
X138618071Y-67521380D01*
X138618071Y-67521380D02*
X138760928Y-67473761D01*
X138760928Y-67473761D02*
X138856166Y-67378523D01*
X138856166Y-67378523D02*
X138903785Y-67283285D01*
X138903785Y-67283285D02*
X138951404Y-67092809D01*
X138951404Y-67092809D02*
X138951404Y-66949952D01*
X138951404Y-66949952D02*
X138903785Y-66759476D01*
X138903785Y-66759476D02*
X138856166Y-66664238D01*
X138856166Y-66664238D02*
X138760928Y-66569000D01*
X138760928Y-66569000D02*
X138618071Y-66521380D01*
X138618071Y-66521380D02*
X138522833Y-66521380D01*
X138522833Y-66521380D02*
X138379976Y-66569000D01*
X138379976Y-66569000D02*
X138332357Y-66616619D01*
X137379976Y-67521380D02*
X137951404Y-67521380D01*
X137665690Y-67521380D02*
X137665690Y-66521380D01*
X137665690Y-66521380D02*
X137760928Y-66664238D01*
X137760928Y-66664238D02*
X137856166Y-66759476D01*
X137856166Y-66759476D02*
X137951404Y-66807095D01*
X136475214Y-66521380D02*
X136951404Y-66521380D01*
X136951404Y-66521380D02*
X136999023Y-66997571D01*
X136999023Y-66997571D02*
X136951404Y-66949952D01*
X136951404Y-66949952D02*
X136856166Y-66902333D01*
X136856166Y-66902333D02*
X136618071Y-66902333D01*
X136618071Y-66902333D02*
X136522833Y-66949952D01*
X136522833Y-66949952D02*
X136475214Y-66997571D01*
X136475214Y-66997571D02*
X136427595Y-67092809D01*
X136427595Y-67092809D02*
X136427595Y-67330904D01*
X136427595Y-67330904D02*
X136475214Y-67426142D01*
X136475214Y-67426142D02*
X136522833Y-67473761D01*
X136522833Y-67473761D02*
X136618071Y-67521380D01*
X136618071Y-67521380D02*
X136856166Y-67521380D01*
X136856166Y-67521380D02*
X136951404Y-67473761D01*
X136951404Y-67473761D02*
X136999023Y-67426142D01*
X170092666Y-64121380D02*
X170425999Y-63645190D01*
X170664094Y-64121380D02*
X170664094Y-63121380D01*
X170664094Y-63121380D02*
X170283142Y-63121380D01*
X170283142Y-63121380D02*
X170187904Y-63169000D01*
X170187904Y-63169000D02*
X170140285Y-63216619D01*
X170140285Y-63216619D02*
X170092666Y-63311857D01*
X170092666Y-63311857D02*
X170092666Y-63454714D01*
X170092666Y-63454714D02*
X170140285Y-63549952D01*
X170140285Y-63549952D02*
X170187904Y-63597571D01*
X170187904Y-63597571D02*
X170283142Y-63645190D01*
X170283142Y-63645190D02*
X170664094Y-63645190D01*
X169140285Y-64121380D02*
X169711713Y-64121380D01*
X169425999Y-64121380D02*
X169425999Y-63121380D01*
X169425999Y-63121380D02*
X169521237Y-63264238D01*
X169521237Y-63264238D02*
X169616475Y-63359476D01*
X169616475Y-63359476D02*
X169711713Y-63407095D01*
X186515333Y-70817380D02*
X186515333Y-71531666D01*
X186515333Y-71531666D02*
X186562952Y-71674523D01*
X186562952Y-71674523D02*
X186658190Y-71769761D01*
X186658190Y-71769761D02*
X186801047Y-71817380D01*
X186801047Y-71817380D02*
X186896285Y-71817380D01*
X186134380Y-70817380D02*
X185515333Y-70817380D01*
X185515333Y-70817380D02*
X185848666Y-71198333D01*
X185848666Y-71198333D02*
X185705809Y-71198333D01*
X185705809Y-71198333D02*
X185610571Y-71245952D01*
X185610571Y-71245952D02*
X185562952Y-71293571D01*
X185562952Y-71293571D02*
X185515333Y-71388809D01*
X185515333Y-71388809D02*
X185515333Y-71626904D01*
X185515333Y-71626904D02*
X185562952Y-71722142D01*
X185562952Y-71722142D02*
X185610571Y-71769761D01*
X185610571Y-71769761D02*
X185705809Y-71817380D01*
X185705809Y-71817380D02*
X185991523Y-71817380D01*
X185991523Y-71817380D02*
X186086761Y-71769761D01*
X186086761Y-71769761D02*
X186134380Y-71722142D01*
X173053333Y-84147380D02*
X173053333Y-84861666D01*
X173053333Y-84861666D02*
X173100952Y-85004523D01*
X173100952Y-85004523D02*
X173196190Y-85099761D01*
X173196190Y-85099761D02*
X173339047Y-85147380D01*
X173339047Y-85147380D02*
X173434285Y-85147380D01*
X172100952Y-84147380D02*
X172577142Y-84147380D01*
X172577142Y-84147380D02*
X172624761Y-84623571D01*
X172624761Y-84623571D02*
X172577142Y-84575952D01*
X172577142Y-84575952D02*
X172481904Y-84528333D01*
X172481904Y-84528333D02*
X172243809Y-84528333D01*
X172243809Y-84528333D02*
X172148571Y-84575952D01*
X172148571Y-84575952D02*
X172100952Y-84623571D01*
X172100952Y-84623571D02*
X172053333Y-84718809D01*
X172053333Y-84718809D02*
X172053333Y-84956904D01*
X172053333Y-84956904D02*
X172100952Y-85052142D01*
X172100952Y-85052142D02*
X172148571Y-85099761D01*
X172148571Y-85099761D02*
X172243809Y-85147380D01*
X172243809Y-85147380D02*
X172481904Y-85147380D01*
X172481904Y-85147380D02*
X172577142Y-85099761D01*
X172577142Y-85099761D02*
X172624761Y-85052142D01*
X177204666Y-71646142D02*
X177252285Y-71693761D01*
X177252285Y-71693761D02*
X177395142Y-71741380D01*
X177395142Y-71741380D02*
X177490380Y-71741380D01*
X177490380Y-71741380D02*
X177633237Y-71693761D01*
X177633237Y-71693761D02*
X177728475Y-71598523D01*
X177728475Y-71598523D02*
X177776094Y-71503285D01*
X177776094Y-71503285D02*
X177823713Y-71312809D01*
X177823713Y-71312809D02*
X177823713Y-71169952D01*
X177823713Y-71169952D02*
X177776094Y-70979476D01*
X177776094Y-70979476D02*
X177728475Y-70884238D01*
X177728475Y-70884238D02*
X177633237Y-70789000D01*
X177633237Y-70789000D02*
X177490380Y-70741380D01*
X177490380Y-70741380D02*
X177395142Y-70741380D01*
X177395142Y-70741380D02*
X177252285Y-70789000D01*
X177252285Y-70789000D02*
X177204666Y-70836619D01*
X176252285Y-71741380D02*
X176823713Y-71741380D01*
X176537999Y-71741380D02*
X176537999Y-70741380D01*
X176537999Y-70741380D02*
X176633237Y-70884238D01*
X176633237Y-70884238D02*
X176728475Y-70979476D01*
X176728475Y-70979476D02*
X176823713Y-71027095D01*
X135381904Y-69627380D02*
X135381904Y-70436904D01*
X135381904Y-70436904D02*
X135334285Y-70532142D01*
X135334285Y-70532142D02*
X135286666Y-70579761D01*
X135286666Y-70579761D02*
X135191428Y-70627380D01*
X135191428Y-70627380D02*
X135000952Y-70627380D01*
X135000952Y-70627380D02*
X134905714Y-70579761D01*
X134905714Y-70579761D02*
X134858095Y-70532142D01*
X134858095Y-70532142D02*
X134810476Y-70436904D01*
X134810476Y-70436904D02*
X134810476Y-69627380D01*
X133810476Y-70627380D02*
X134381904Y-70627380D01*
X134096190Y-70627380D02*
X134096190Y-69627380D01*
X134096190Y-69627380D02*
X134191428Y-69770238D01*
X134191428Y-69770238D02*
X134286666Y-69865476D01*
X134286666Y-69865476D02*
X134381904Y-69913095D01*
X178873904Y-61587380D02*
X178873904Y-62396904D01*
X178873904Y-62396904D02*
X178826285Y-62492142D01*
X178826285Y-62492142D02*
X178778666Y-62539761D01*
X178778666Y-62539761D02*
X178683428Y-62587380D01*
X178683428Y-62587380D02*
X178492952Y-62587380D01*
X178492952Y-62587380D02*
X178397714Y-62539761D01*
X178397714Y-62539761D02*
X178350095Y-62492142D01*
X178350095Y-62492142D02*
X178302476Y-62396904D01*
X178302476Y-62396904D02*
X178302476Y-61587380D01*
X177873904Y-61682619D02*
X177826285Y-61635000D01*
X177826285Y-61635000D02*
X177731047Y-61587380D01*
X177731047Y-61587380D02*
X177492952Y-61587380D01*
X177492952Y-61587380D02*
X177397714Y-61635000D01*
X177397714Y-61635000D02*
X177350095Y-61682619D01*
X177350095Y-61682619D02*
X177302476Y-61777857D01*
X177302476Y-61777857D02*
X177302476Y-61873095D01*
X177302476Y-61873095D02*
X177350095Y-62015952D01*
X177350095Y-62015952D02*
X177921523Y-62587380D01*
X177921523Y-62587380D02*
X177302476Y-62587380D01*
D11*
X173201000Y-60444748D02*
X173201000Y-60967252D01*
X171731000Y-60444748D02*
X171731000Y-60967252D01*
X152701248Y-79265000D02*
X153223752Y-79265000D01*
X152701248Y-80735000D02*
X153223752Y-80735000D01*
X130817252Y-78967000D02*
X130294748Y-78967000D01*
X130817252Y-77497000D02*
X130294748Y-77497000D01*
X141705000Y-74432936D02*
X141705000Y-74887064D01*
X140235000Y-74432936D02*
X140235000Y-74887064D01*
X126465000Y-74139248D02*
X126465000Y-74661752D01*
X124995000Y-74139248D02*
X124995000Y-74661752D01*
X182887252Y-82244000D02*
X182364748Y-82244000D01*
X182887252Y-80824000D02*
X182364748Y-80824000D01*
X133432000Y-69794000D02*
X130572000Y-69794000D01*
X133432000Y-67874000D02*
X133432000Y-69794000D01*
X130572000Y-67874000D02*
X133432000Y-67874000D01*
X129488000Y-74160748D02*
X129488000Y-74683252D01*
X128068000Y-74160748D02*
X128068000Y-74683252D01*
X158740000Y-105276000D02*
X158740000Y-104876000D01*
X158740000Y-102906000D02*
X158740000Y-100926000D01*
X158740000Y-100926000D02*
X158320000Y-100926000D01*
X156740000Y-100696000D02*
X156740000Y-100246000D01*
X156290000Y-100246000D02*
X156740000Y-100246000D01*
X151220000Y-104876000D02*
X151220000Y-105276000D01*
X151220000Y-102906000D02*
X151220000Y-100926000D01*
X151220000Y-100926000D02*
X151640000Y-100926000D01*
X157701248Y-79265000D02*
X158223752Y-79265000D01*
X157701248Y-80735000D02*
X158223752Y-80735000D01*
X189537000Y-66090000D02*
X189537000Y-67970000D01*
X182827000Y-66090000D02*
X182827000Y-67970000D01*
X168121000Y-60444748D02*
X168121000Y-60967252D01*
X166651000Y-60444748D02*
X166651000Y-60967252D01*
X120288000Y-53900000D02*
X120288000Y-57900000D01*
X119998000Y-58890000D02*
X114698000Y-58890000D01*
X119998000Y-52870000D02*
X119998000Y-58890000D01*
X119418000Y-53470000D02*
X117818000Y-53470000D01*
X119418000Y-52870000D02*
X119418000Y-53470000D01*
X118618000Y-58890000D02*
X118618000Y-57890000D01*
X118618000Y-57890000D02*
X118368000Y-57360000D01*
X118618000Y-57890000D02*
X116078000Y-57890000D01*
X118368000Y-58890000D02*
X118368000Y-57890000D01*
X118368000Y-57360000D02*
X116328000Y-57360000D01*
X117818000Y-53470000D02*
X117818000Y-52870000D01*
X116878000Y-53470000D02*
X115278000Y-53470000D01*
X116878000Y-52870000D02*
X116878000Y-53470000D01*
X116328000Y-58890000D02*
X116328000Y-57890000D01*
X116328000Y-57360000D02*
X116078000Y-57890000D01*
X116078000Y-57890000D02*
X116078000Y-58890000D01*
X115278000Y-53470000D02*
X115278000Y-52870000D01*
X114698000Y-58890000D02*
X114698000Y-52870000D01*
X114698000Y-52870000D02*
X119998000Y-52870000D01*
X176537252Y-82269000D02*
X176014748Y-82269000D01*
X176537252Y-80799000D02*
X176014748Y-80799000D01*
X179772000Y-79580000D02*
X179772000Y-79080000D01*
X179772000Y-76260000D02*
X179272000Y-76260000D01*
X179272000Y-79580000D02*
X179772000Y-79580000D01*
X176952000Y-79580000D02*
X176452000Y-79580000D01*
X176952000Y-76260000D02*
X176452000Y-76260000D01*
X176452000Y-79580000D02*
X176452000Y-79080000D01*
X176452000Y-76260000D02*
X176452000Y-76760000D01*
X148223752Y-80735000D02*
X147701248Y-80735000D01*
X148223752Y-79265000D02*
X147701248Y-79265000D01*
X164040000Y-77670000D02*
X162540000Y-77670000D01*
X164040000Y-76670000D02*
X164040000Y-77670000D01*
X145640000Y-77670000D02*
X147140000Y-77670000D01*
X145640000Y-77670000D02*
X145640000Y-76670000D01*
X135367752Y-78967000D02*
X134845248Y-78967000D01*
X135367752Y-77497000D02*
X134845248Y-77497000D01*
X179630000Y-70111252D02*
X179630000Y-69588748D01*
X181050000Y-70111252D02*
X181050000Y-69588748D01*
X121947000Y-74627564D02*
X121947000Y-74173436D01*
X123417000Y-74627564D02*
X123417000Y-74173436D01*
X141449248Y-68099000D02*
X141971752Y-68099000D01*
X141449248Y-69569000D02*
X141971752Y-69569000D01*
X137950752Y-69569000D02*
X137428248Y-69569000D01*
X137950752Y-68099000D02*
X137428248Y-68099000D01*
X170661000Y-60478936D02*
X170661000Y-60933064D01*
X169191000Y-60478936D02*
X169191000Y-60933064D01*
X189537000Y-75260000D02*
X189537000Y-77140000D01*
X182827000Y-75260000D02*
X182827000Y-77140000D01*
X179470000Y-86900000D02*
X179470000Y-90900000D01*
X179180000Y-91890000D02*
X166260000Y-91890000D01*
X179180000Y-85870000D02*
X179180000Y-91890000D01*
X178600000Y-86470000D02*
X177000000Y-86470000D01*
X178600000Y-85870000D02*
X178600000Y-86470000D01*
X177800000Y-91890000D02*
X177800000Y-90890000D01*
X177800000Y-90890000D02*
X177550000Y-90360000D01*
X177800000Y-90890000D02*
X167640000Y-90890000D01*
X177550000Y-91890000D02*
X177550000Y-90890000D01*
X177550000Y-90360000D02*
X167890000Y-90360000D01*
X177000000Y-86470000D02*
X177000000Y-85870000D01*
X176060000Y-86470000D02*
X174460000Y-86470000D01*
X176060000Y-85870000D02*
X176060000Y-86470000D01*
X174460000Y-86470000D02*
X174460000Y-85870000D01*
X173520000Y-86470000D02*
X171920000Y-86470000D01*
X173520000Y-85870000D02*
X173520000Y-86470000D01*
X171920000Y-86470000D02*
X171920000Y-85870000D01*
X170980000Y-86470000D02*
X169380000Y-86470000D01*
X170980000Y-85870000D02*
X170980000Y-86470000D01*
X169380000Y-86470000D02*
X169380000Y-85870000D01*
X168440000Y-86470000D02*
X166840000Y-86470000D01*
X168440000Y-85870000D02*
X168440000Y-86470000D01*
X167890000Y-91890000D02*
X167890000Y-90890000D01*
X167890000Y-90360000D02*
X167640000Y-90890000D01*
X167640000Y-90890000D02*
X167640000Y-91890000D01*
X166840000Y-86470000D02*
X166840000Y-85870000D01*
X166260000Y-91890000D02*
X166260000Y-85870000D01*
X166260000Y-85870000D02*
X179180000Y-85870000D01*
X177299252Y-69823000D02*
X176776748Y-69823000D01*
X177299252Y-68353000D02*
X176776748Y-68353000D01*
X134620000Y-76220000D02*
X136570000Y-76220000D01*
X134620000Y-76220000D02*
X132670000Y-76220000D01*
X134620000Y-71100000D02*
X138070000Y-71100000D01*
X134620000Y-71100000D02*
X132670000Y-71100000D01*
X179772000Y-66880000D02*
X179772000Y-66380000D01*
X179772000Y-63560000D02*
X179272000Y-63560000D01*
X179272000Y-66880000D02*
X179772000Y-66880000D01*
X176952000Y-66880000D02*
X176452000Y-66880000D01*
X176952000Y-63560000D02*
X176452000Y-63560000D01*
X176452000Y-66880000D02*
X176452000Y-66380000D01*
X176452000Y-63560000D02*
X176452000Y-64060000D01*
M02*
