G04 #@! TF.GenerationSoftware,KiCad,Pcbnew,(7.0.0)*
G04 #@! TF.CreationDate,2023-03-05T16:48:56-06:00*
G04 #@! TF.ProjectId,Phone_Audio_FM_Transmitter,50686f6e-655f-4417-9564-696f5f464d5f,1*
G04 #@! TF.SameCoordinates,Original*
G04 #@! TF.FileFunction,Legend,Top*
G04 #@! TF.FilePolarity,Positive*
%FSLAX46Y46*%
G04 Gerber Fmt 4.6, Leading zero omitted, Abs format (unit mm)*
G04 Created by KiCad (PCBNEW (7.0.0)) date 2023-03-05 16:48:56*
%MOMM*%
%LPD*%
G01*
G04 APERTURE LIST*
%ADD10C,0.150000*%
%ADD11C,0.120000*%
G04 APERTURE END LIST*
D10*
X115943142Y-93205380D02*
X115609809Y-92729190D01*
X115371714Y-93205380D02*
X115371714Y-92205380D01*
X115371714Y-92205380D02*
X115752666Y-92205380D01*
X115752666Y-92205380D02*
X115847904Y-92253000D01*
X115847904Y-92253000D02*
X115895523Y-92300619D01*
X115895523Y-92300619D02*
X115943142Y-92395857D01*
X115943142Y-92395857D02*
X115943142Y-92538714D01*
X115943142Y-92538714D02*
X115895523Y-92633952D01*
X115895523Y-92633952D02*
X115847904Y-92681571D01*
X115847904Y-92681571D02*
X115752666Y-92729190D01*
X115752666Y-92729190D02*
X115371714Y-92729190D01*
X116895523Y-93205380D02*
X116324095Y-93205380D01*
X116609809Y-93205380D02*
X116609809Y-92205380D01*
X116609809Y-92205380D02*
X116514571Y-92348238D01*
X116514571Y-92348238D02*
X116419333Y-92443476D01*
X116419333Y-92443476D02*
X116324095Y-92491095D01*
X117514571Y-92205380D02*
X117609809Y-92205380D01*
X117609809Y-92205380D02*
X117705047Y-92253000D01*
X117705047Y-92253000D02*
X117752666Y-92300619D01*
X117752666Y-92300619D02*
X117800285Y-92395857D01*
X117800285Y-92395857D02*
X117847904Y-92586333D01*
X117847904Y-92586333D02*
X117847904Y-92824428D01*
X117847904Y-92824428D02*
X117800285Y-93014904D01*
X117800285Y-93014904D02*
X117752666Y-93110142D01*
X117752666Y-93110142D02*
X117705047Y-93157761D01*
X117705047Y-93157761D02*
X117609809Y-93205380D01*
X117609809Y-93205380D02*
X117514571Y-93205380D01*
X117514571Y-93205380D02*
X117419333Y-93157761D01*
X117419333Y-93157761D02*
X117371714Y-93110142D01*
X117371714Y-93110142D02*
X117324095Y-93014904D01*
X117324095Y-93014904D02*
X117276476Y-92824428D01*
X117276476Y-92824428D02*
X117276476Y-92586333D01*
X117276476Y-92586333D02*
X117324095Y-92395857D01*
X117324095Y-92395857D02*
X117371714Y-92300619D01*
X117371714Y-92300619D02*
X117419333Y-92253000D01*
X117419333Y-92253000D02*
X117514571Y-92205380D01*
X112776095Y-96497380D02*
X112776095Y-95497380D01*
X112776095Y-95973571D02*
X113347523Y-95973571D01*
X113347523Y-96497380D02*
X113347523Y-95497380D01*
X113728476Y-95497380D02*
X114347523Y-95497380D01*
X114347523Y-95497380D02*
X114014190Y-95878333D01*
X114014190Y-95878333D02*
X114157047Y-95878333D01*
X114157047Y-95878333D02*
X114252285Y-95925952D01*
X114252285Y-95925952D02*
X114299904Y-95973571D01*
X114299904Y-95973571D02*
X114347523Y-96068809D01*
X114347523Y-96068809D02*
X114347523Y-96306904D01*
X114347523Y-96306904D02*
X114299904Y-96402142D01*
X114299904Y-96402142D02*
X114252285Y-96449761D01*
X114252285Y-96449761D02*
X114157047Y-96497380D01*
X114157047Y-96497380D02*
X113871333Y-96497380D01*
X113871333Y-96497380D02*
X113776095Y-96449761D01*
X113776095Y-96449761D02*
X113728476Y-96402142D01*
X187833333Y-97649380D02*
X187500000Y-97173190D01*
X187261905Y-97649380D02*
X187261905Y-96649380D01*
X187261905Y-96649380D02*
X187642857Y-96649380D01*
X187642857Y-96649380D02*
X187738095Y-96697000D01*
X187738095Y-96697000D02*
X187785714Y-96744619D01*
X187785714Y-96744619D02*
X187833333Y-96839857D01*
X187833333Y-96839857D02*
X187833333Y-96982714D01*
X187833333Y-96982714D02*
X187785714Y-97077952D01*
X187785714Y-97077952D02*
X187738095Y-97125571D01*
X187738095Y-97125571D02*
X187642857Y-97173190D01*
X187642857Y-97173190D02*
X187261905Y-97173190D01*
X188309524Y-97649380D02*
X188500000Y-97649380D01*
X188500000Y-97649380D02*
X188595238Y-97601761D01*
X188595238Y-97601761D02*
X188642857Y-97554142D01*
X188642857Y-97554142D02*
X188738095Y-97411285D01*
X188738095Y-97411285D02*
X188785714Y-97220809D01*
X188785714Y-97220809D02*
X188785714Y-96839857D01*
X188785714Y-96839857D02*
X188738095Y-96744619D01*
X188738095Y-96744619D02*
X188690476Y-96697000D01*
X188690476Y-96697000D02*
X188595238Y-96649380D01*
X188595238Y-96649380D02*
X188404762Y-96649380D01*
X188404762Y-96649380D02*
X188309524Y-96697000D01*
X188309524Y-96697000D02*
X188261905Y-96744619D01*
X188261905Y-96744619D02*
X188214286Y-96839857D01*
X188214286Y-96839857D02*
X188214286Y-97077952D01*
X188214286Y-97077952D02*
X188261905Y-97173190D01*
X188261905Y-97173190D02*
X188309524Y-97220809D01*
X188309524Y-97220809D02*
X188404762Y-97268428D01*
X188404762Y-97268428D02*
X188595238Y-97268428D01*
X188595238Y-97268428D02*
X188690476Y-97220809D01*
X188690476Y-97220809D02*
X188738095Y-97173190D01*
X188738095Y-97173190D02*
X188785714Y-97077952D01*
X181319642Y-87592142D02*
X181272023Y-87639761D01*
X181272023Y-87639761D02*
X181129166Y-87687380D01*
X181129166Y-87687380D02*
X181033928Y-87687380D01*
X181033928Y-87687380D02*
X180891071Y-87639761D01*
X180891071Y-87639761D02*
X180795833Y-87544523D01*
X180795833Y-87544523D02*
X180748214Y-87449285D01*
X180748214Y-87449285D02*
X180700595Y-87258809D01*
X180700595Y-87258809D02*
X180700595Y-87115952D01*
X180700595Y-87115952D02*
X180748214Y-86925476D01*
X180748214Y-86925476D02*
X180795833Y-86830238D01*
X180795833Y-86830238D02*
X180891071Y-86735000D01*
X180891071Y-86735000D02*
X181033928Y-86687380D01*
X181033928Y-86687380D02*
X181129166Y-86687380D01*
X181129166Y-86687380D02*
X181272023Y-86735000D01*
X181272023Y-86735000D02*
X181319642Y-86782619D01*
X182272023Y-87687380D02*
X181700595Y-87687380D01*
X181986309Y-87687380D02*
X181986309Y-86687380D01*
X181986309Y-86687380D02*
X181891071Y-86830238D01*
X181891071Y-86830238D02*
X181795833Y-86925476D01*
X181795833Y-86925476D02*
X181700595Y-86973095D01*
X183224404Y-87687380D02*
X182652976Y-87687380D01*
X182938690Y-87687380D02*
X182938690Y-86687380D01*
X182938690Y-86687380D02*
X182843452Y-86830238D01*
X182843452Y-86830238D02*
X182748214Y-86925476D01*
X182748214Y-86925476D02*
X182652976Y-86973095D01*
X112776095Y-45697380D02*
X112776095Y-44697380D01*
X112776095Y-45173571D02*
X113347523Y-45173571D01*
X113347523Y-45697380D02*
X113347523Y-44697380D01*
X114347523Y-45697380D02*
X113776095Y-45697380D01*
X114061809Y-45697380D02*
X114061809Y-44697380D01*
X114061809Y-44697380D02*
X113966571Y-44840238D01*
X113966571Y-44840238D02*
X113871333Y-44935476D01*
X113871333Y-44935476D02*
X113776095Y-44983095D01*
X195326095Y-45697380D02*
X195326095Y-44697380D01*
X195326095Y-45173571D02*
X195897523Y-45173571D01*
X195897523Y-45697380D02*
X195897523Y-44697380D01*
X196326095Y-44792619D02*
X196373714Y-44745000D01*
X196373714Y-44745000D02*
X196468952Y-44697380D01*
X196468952Y-44697380D02*
X196707047Y-44697380D01*
X196707047Y-44697380D02*
X196802285Y-44745000D01*
X196802285Y-44745000D02*
X196849904Y-44792619D01*
X196849904Y-44792619D02*
X196897523Y-44887857D01*
X196897523Y-44887857D02*
X196897523Y-44983095D01*
X196897523Y-44983095D02*
X196849904Y-45125952D01*
X196849904Y-45125952D02*
X196278476Y-45697380D01*
X196278476Y-45697380D02*
X196897523Y-45697380D01*
X187833333Y-93585380D02*
X187500000Y-93109190D01*
X187261905Y-93585380D02*
X187261905Y-92585380D01*
X187261905Y-92585380D02*
X187642857Y-92585380D01*
X187642857Y-92585380D02*
X187738095Y-92633000D01*
X187738095Y-92633000D02*
X187785714Y-92680619D01*
X187785714Y-92680619D02*
X187833333Y-92775857D01*
X187833333Y-92775857D02*
X187833333Y-92918714D01*
X187833333Y-92918714D02*
X187785714Y-93013952D01*
X187785714Y-93013952D02*
X187738095Y-93061571D01*
X187738095Y-93061571D02*
X187642857Y-93109190D01*
X187642857Y-93109190D02*
X187261905Y-93109190D01*
X188166667Y-92585380D02*
X188833333Y-92585380D01*
X188833333Y-92585380D02*
X188404762Y-93585380D01*
X144833333Y-87717380D02*
X144500000Y-87241190D01*
X144261905Y-87717380D02*
X144261905Y-86717380D01*
X144261905Y-86717380D02*
X144642857Y-86717380D01*
X144642857Y-86717380D02*
X144738095Y-86765000D01*
X144738095Y-86765000D02*
X144785714Y-86812619D01*
X144785714Y-86812619D02*
X144833333Y-86907857D01*
X144833333Y-86907857D02*
X144833333Y-87050714D01*
X144833333Y-87050714D02*
X144785714Y-87145952D01*
X144785714Y-87145952D02*
X144738095Y-87193571D01*
X144738095Y-87193571D02*
X144642857Y-87241190D01*
X144642857Y-87241190D02*
X144261905Y-87241190D01*
X145690476Y-87050714D02*
X145690476Y-87717380D01*
X145452381Y-86669761D02*
X145214286Y-87384047D01*
X145214286Y-87384047D02*
X145833333Y-87384047D01*
X152233333Y-92826142D02*
X152185714Y-92873761D01*
X152185714Y-92873761D02*
X152042857Y-92921380D01*
X152042857Y-92921380D02*
X151947619Y-92921380D01*
X151947619Y-92921380D02*
X151804762Y-92873761D01*
X151804762Y-92873761D02*
X151709524Y-92778523D01*
X151709524Y-92778523D02*
X151661905Y-92683285D01*
X151661905Y-92683285D02*
X151614286Y-92492809D01*
X151614286Y-92492809D02*
X151614286Y-92349952D01*
X151614286Y-92349952D02*
X151661905Y-92159476D01*
X151661905Y-92159476D02*
X151709524Y-92064238D01*
X151709524Y-92064238D02*
X151804762Y-91969000D01*
X151804762Y-91969000D02*
X151947619Y-91921380D01*
X151947619Y-91921380D02*
X152042857Y-91921380D01*
X152042857Y-91921380D02*
X152185714Y-91969000D01*
X152185714Y-91969000D02*
X152233333Y-92016619D01*
X152804762Y-92349952D02*
X152709524Y-92302333D01*
X152709524Y-92302333D02*
X152661905Y-92254714D01*
X152661905Y-92254714D02*
X152614286Y-92159476D01*
X152614286Y-92159476D02*
X152614286Y-92111857D01*
X152614286Y-92111857D02*
X152661905Y-92016619D01*
X152661905Y-92016619D02*
X152709524Y-91969000D01*
X152709524Y-91969000D02*
X152804762Y-91921380D01*
X152804762Y-91921380D02*
X152995238Y-91921380D01*
X152995238Y-91921380D02*
X153090476Y-91969000D01*
X153090476Y-91969000D02*
X153138095Y-92016619D01*
X153138095Y-92016619D02*
X153185714Y-92111857D01*
X153185714Y-92111857D02*
X153185714Y-92159476D01*
X153185714Y-92159476D02*
X153138095Y-92254714D01*
X153138095Y-92254714D02*
X153090476Y-92302333D01*
X153090476Y-92302333D02*
X152995238Y-92349952D01*
X152995238Y-92349952D02*
X152804762Y-92349952D01*
X152804762Y-92349952D02*
X152709524Y-92397571D01*
X152709524Y-92397571D02*
X152661905Y-92445190D01*
X152661905Y-92445190D02*
X152614286Y-92540428D01*
X152614286Y-92540428D02*
X152614286Y-92730904D01*
X152614286Y-92730904D02*
X152661905Y-92826142D01*
X152661905Y-92826142D02*
X152709524Y-92873761D01*
X152709524Y-92873761D02*
X152804762Y-92921380D01*
X152804762Y-92921380D02*
X152995238Y-92921380D01*
X152995238Y-92921380D02*
X153090476Y-92873761D01*
X153090476Y-92873761D02*
X153138095Y-92826142D01*
X153138095Y-92826142D02*
X153185714Y-92730904D01*
X153185714Y-92730904D02*
X153185714Y-92540428D01*
X153185714Y-92540428D02*
X153138095Y-92445190D01*
X153138095Y-92445190D02*
X153090476Y-92397571D01*
X153090476Y-92397571D02*
X152995238Y-92349952D01*
X159599333Y-88633380D02*
X159266000Y-88157190D01*
X159027905Y-88633380D02*
X159027905Y-87633380D01*
X159027905Y-87633380D02*
X159408857Y-87633380D01*
X159408857Y-87633380D02*
X159504095Y-87681000D01*
X159504095Y-87681000D02*
X159551714Y-87728619D01*
X159551714Y-87728619D02*
X159599333Y-87823857D01*
X159599333Y-87823857D02*
X159599333Y-87966714D01*
X159599333Y-87966714D02*
X159551714Y-88061952D01*
X159551714Y-88061952D02*
X159504095Y-88109571D01*
X159504095Y-88109571D02*
X159408857Y-88157190D01*
X159408857Y-88157190D02*
X159027905Y-88157190D01*
X160456476Y-87633380D02*
X160266000Y-87633380D01*
X160266000Y-87633380D02*
X160170762Y-87681000D01*
X160170762Y-87681000D02*
X160123143Y-87728619D01*
X160123143Y-87728619D02*
X160027905Y-87871476D01*
X160027905Y-87871476D02*
X159980286Y-88061952D01*
X159980286Y-88061952D02*
X159980286Y-88442904D01*
X159980286Y-88442904D02*
X160027905Y-88538142D01*
X160027905Y-88538142D02*
X160075524Y-88585761D01*
X160075524Y-88585761D02*
X160170762Y-88633380D01*
X160170762Y-88633380D02*
X160361238Y-88633380D01*
X160361238Y-88633380D02*
X160456476Y-88585761D01*
X160456476Y-88585761D02*
X160504095Y-88538142D01*
X160504095Y-88538142D02*
X160551714Y-88442904D01*
X160551714Y-88442904D02*
X160551714Y-88204809D01*
X160551714Y-88204809D02*
X160504095Y-88109571D01*
X160504095Y-88109571D02*
X160456476Y-88061952D01*
X160456476Y-88061952D02*
X160361238Y-88014333D01*
X160361238Y-88014333D02*
X160170762Y-88014333D01*
X160170762Y-88014333D02*
X160075524Y-88061952D01*
X160075524Y-88061952D02*
X160027905Y-88109571D01*
X160027905Y-88109571D02*
X159980286Y-88204809D01*
X178744762Y-101840380D02*
X178744762Y-100840380D01*
X178744762Y-100840380D02*
X179316190Y-101840380D01*
X179316190Y-101840380D02*
X179316190Y-100840380D01*
X179792381Y-101316571D02*
X180125714Y-101316571D01*
X180268571Y-101840380D02*
X179792381Y-101840380D01*
X179792381Y-101840380D02*
X179792381Y-100840380D01*
X179792381Y-100840380D02*
X180268571Y-100840380D01*
X180601905Y-100840380D02*
X181268571Y-101840380D01*
X181268571Y-100840380D02*
X180601905Y-101840380D01*
X181506667Y-100840380D02*
X182078095Y-100840380D01*
X181792381Y-101840380D02*
X181792381Y-100840380D01*
X155535333Y-88633380D02*
X155202000Y-88157190D01*
X154963905Y-88633380D02*
X154963905Y-87633380D01*
X154963905Y-87633380D02*
X155344857Y-87633380D01*
X155344857Y-87633380D02*
X155440095Y-87681000D01*
X155440095Y-87681000D02*
X155487714Y-87728619D01*
X155487714Y-87728619D02*
X155535333Y-87823857D01*
X155535333Y-87823857D02*
X155535333Y-87966714D01*
X155535333Y-87966714D02*
X155487714Y-88061952D01*
X155487714Y-88061952D02*
X155440095Y-88109571D01*
X155440095Y-88109571D02*
X155344857Y-88157190D01*
X155344857Y-88157190D02*
X154963905Y-88157190D01*
X156106762Y-88061952D02*
X156011524Y-88014333D01*
X156011524Y-88014333D02*
X155963905Y-87966714D01*
X155963905Y-87966714D02*
X155916286Y-87871476D01*
X155916286Y-87871476D02*
X155916286Y-87823857D01*
X155916286Y-87823857D02*
X155963905Y-87728619D01*
X155963905Y-87728619D02*
X156011524Y-87681000D01*
X156011524Y-87681000D02*
X156106762Y-87633380D01*
X156106762Y-87633380D02*
X156297238Y-87633380D01*
X156297238Y-87633380D02*
X156392476Y-87681000D01*
X156392476Y-87681000D02*
X156440095Y-87728619D01*
X156440095Y-87728619D02*
X156487714Y-87823857D01*
X156487714Y-87823857D02*
X156487714Y-87871476D01*
X156487714Y-87871476D02*
X156440095Y-87966714D01*
X156440095Y-87966714D02*
X156392476Y-88014333D01*
X156392476Y-88014333D02*
X156297238Y-88061952D01*
X156297238Y-88061952D02*
X156106762Y-88061952D01*
X156106762Y-88061952D02*
X156011524Y-88109571D01*
X156011524Y-88109571D02*
X155963905Y-88157190D01*
X155963905Y-88157190D02*
X155916286Y-88252428D01*
X155916286Y-88252428D02*
X155916286Y-88442904D01*
X155916286Y-88442904D02*
X155963905Y-88538142D01*
X155963905Y-88538142D02*
X156011524Y-88585761D01*
X156011524Y-88585761D02*
X156106762Y-88633380D01*
X156106762Y-88633380D02*
X156297238Y-88633380D01*
X156297238Y-88633380D02*
X156392476Y-88585761D01*
X156392476Y-88585761D02*
X156440095Y-88538142D01*
X156440095Y-88538142D02*
X156487714Y-88442904D01*
X156487714Y-88442904D02*
X156487714Y-88252428D01*
X156487714Y-88252428D02*
X156440095Y-88157190D01*
X156440095Y-88157190D02*
X156392476Y-88109571D01*
X156392476Y-88109571D02*
X156297238Y-88061952D01*
X144907095Y-84076380D02*
X144907095Y-84885904D01*
X144907095Y-84885904D02*
X144954714Y-84981142D01*
X144954714Y-84981142D02*
X145002333Y-85028761D01*
X145002333Y-85028761D02*
X145097571Y-85076380D01*
X145097571Y-85076380D02*
X145288047Y-85076380D01*
X145288047Y-85076380D02*
X145383285Y-85028761D01*
X145383285Y-85028761D02*
X145430904Y-84981142D01*
X145430904Y-84981142D02*
X145478523Y-84885904D01*
X145478523Y-84885904D02*
X145478523Y-84076380D01*
X146430904Y-84076380D02*
X145954714Y-84076380D01*
X145954714Y-84076380D02*
X145907095Y-84552571D01*
X145907095Y-84552571D02*
X145954714Y-84504952D01*
X145954714Y-84504952D02*
X146049952Y-84457333D01*
X146049952Y-84457333D02*
X146288047Y-84457333D01*
X146288047Y-84457333D02*
X146383285Y-84504952D01*
X146383285Y-84504952D02*
X146430904Y-84552571D01*
X146430904Y-84552571D02*
X146478523Y-84647809D01*
X146478523Y-84647809D02*
X146478523Y-84885904D01*
X146478523Y-84885904D02*
X146430904Y-84981142D01*
X146430904Y-84981142D02*
X146383285Y-85028761D01*
X146383285Y-85028761D02*
X146288047Y-85076380D01*
X146288047Y-85076380D02*
X146049952Y-85076380D01*
X146049952Y-85076380D02*
X145954714Y-85028761D01*
X145954714Y-85028761D02*
X145907095Y-84981142D01*
X127897143Y-101967380D02*
X127897143Y-100967380D01*
X127897143Y-100967380D02*
X128278095Y-100967380D01*
X128278095Y-100967380D02*
X128373333Y-101015000D01*
X128373333Y-101015000D02*
X128420952Y-101062619D01*
X128420952Y-101062619D02*
X128468571Y-101157857D01*
X128468571Y-101157857D02*
X128468571Y-101300714D01*
X128468571Y-101300714D02*
X128420952Y-101395952D01*
X128420952Y-101395952D02*
X128373333Y-101443571D01*
X128373333Y-101443571D02*
X128278095Y-101491190D01*
X128278095Y-101491190D02*
X127897143Y-101491190D01*
X129468571Y-101967380D02*
X129135238Y-101491190D01*
X128897143Y-101967380D02*
X128897143Y-100967380D01*
X128897143Y-100967380D02*
X129278095Y-100967380D01*
X129278095Y-100967380D02*
X129373333Y-101015000D01*
X129373333Y-101015000D02*
X129420952Y-101062619D01*
X129420952Y-101062619D02*
X129468571Y-101157857D01*
X129468571Y-101157857D02*
X129468571Y-101300714D01*
X129468571Y-101300714D02*
X129420952Y-101395952D01*
X129420952Y-101395952D02*
X129373333Y-101443571D01*
X129373333Y-101443571D02*
X129278095Y-101491190D01*
X129278095Y-101491190D02*
X128897143Y-101491190D01*
X129897143Y-101443571D02*
X130230476Y-101443571D01*
X130373333Y-101967380D02*
X129897143Y-101967380D01*
X129897143Y-101967380D02*
X129897143Y-100967380D01*
X129897143Y-100967380D02*
X130373333Y-100967380D01*
X130659048Y-100967380D02*
X130992381Y-101967380D01*
X130992381Y-101967380D02*
X131325714Y-100967380D01*
X143446666Y-101316571D02*
X143113333Y-101316571D01*
X143113333Y-101840380D02*
X143113333Y-100840380D01*
X143113333Y-100840380D02*
X143589523Y-100840380D01*
X144541904Y-101840380D02*
X144208571Y-101364190D01*
X143970476Y-101840380D02*
X143970476Y-100840380D01*
X143970476Y-100840380D02*
X144351428Y-100840380D01*
X144351428Y-100840380D02*
X144446666Y-100888000D01*
X144446666Y-100888000D02*
X144494285Y-100935619D01*
X144494285Y-100935619D02*
X144541904Y-101030857D01*
X144541904Y-101030857D02*
X144541904Y-101173714D01*
X144541904Y-101173714D02*
X144494285Y-101268952D01*
X144494285Y-101268952D02*
X144446666Y-101316571D01*
X144446666Y-101316571D02*
X144351428Y-101364190D01*
X144351428Y-101364190D02*
X143970476Y-101364190D01*
X144970476Y-101316571D02*
X145303809Y-101316571D01*
X145446666Y-101840380D02*
X144970476Y-101840380D01*
X144970476Y-101840380D02*
X144970476Y-100840380D01*
X144970476Y-100840380D02*
X145446666Y-100840380D01*
X146541904Y-101935619D02*
X146446666Y-101888000D01*
X146446666Y-101888000D02*
X146351428Y-101792761D01*
X146351428Y-101792761D02*
X146208571Y-101649904D01*
X146208571Y-101649904D02*
X146113333Y-101602285D01*
X146113333Y-101602285D02*
X146018095Y-101602285D01*
X146065714Y-101840380D02*
X145970476Y-101792761D01*
X145970476Y-101792761D02*
X145875238Y-101697523D01*
X145875238Y-101697523D02*
X145827619Y-101507047D01*
X145827619Y-101507047D02*
X145827619Y-101173714D01*
X145827619Y-101173714D02*
X145875238Y-100983238D01*
X145875238Y-100983238D02*
X145970476Y-100888000D01*
X145970476Y-100888000D02*
X146065714Y-100840380D01*
X146065714Y-100840380D02*
X146256190Y-100840380D01*
X146256190Y-100840380D02*
X146351428Y-100888000D01*
X146351428Y-100888000D02*
X146446666Y-100983238D01*
X146446666Y-100983238D02*
X146494285Y-101173714D01*
X146494285Y-101173714D02*
X146494285Y-101507047D01*
X146494285Y-101507047D02*
X146446666Y-101697523D01*
X146446666Y-101697523D02*
X146351428Y-101792761D01*
X146351428Y-101792761D02*
X146256190Y-101840380D01*
X146256190Y-101840380D02*
X146065714Y-101840380D01*
X172319642Y-94592142D02*
X172272023Y-94639761D01*
X172272023Y-94639761D02*
X172129166Y-94687380D01*
X172129166Y-94687380D02*
X172033928Y-94687380D01*
X172033928Y-94687380D02*
X171891071Y-94639761D01*
X171891071Y-94639761D02*
X171795833Y-94544523D01*
X171795833Y-94544523D02*
X171748214Y-94449285D01*
X171748214Y-94449285D02*
X171700595Y-94258809D01*
X171700595Y-94258809D02*
X171700595Y-94115952D01*
X171700595Y-94115952D02*
X171748214Y-93925476D01*
X171748214Y-93925476D02*
X171795833Y-93830238D01*
X171795833Y-93830238D02*
X171891071Y-93735000D01*
X171891071Y-93735000D02*
X172033928Y-93687380D01*
X172033928Y-93687380D02*
X172129166Y-93687380D01*
X172129166Y-93687380D02*
X172272023Y-93735000D01*
X172272023Y-93735000D02*
X172319642Y-93782619D01*
X173272023Y-94687380D02*
X172700595Y-94687380D01*
X172986309Y-94687380D02*
X172986309Y-93687380D01*
X172986309Y-93687380D02*
X172891071Y-93830238D01*
X172891071Y-93830238D02*
X172795833Y-93925476D01*
X172795833Y-93925476D02*
X172700595Y-93973095D01*
X173891071Y-93687380D02*
X173986309Y-93687380D01*
X173986309Y-93687380D02*
X174081547Y-93735000D01*
X174081547Y-93735000D02*
X174129166Y-93782619D01*
X174129166Y-93782619D02*
X174176785Y-93877857D01*
X174176785Y-93877857D02*
X174224404Y-94068333D01*
X174224404Y-94068333D02*
X174224404Y-94306428D01*
X174224404Y-94306428D02*
X174176785Y-94496904D01*
X174176785Y-94496904D02*
X174129166Y-94592142D01*
X174129166Y-94592142D02*
X174081547Y-94639761D01*
X174081547Y-94639761D02*
X173986309Y-94687380D01*
X173986309Y-94687380D02*
X173891071Y-94687380D01*
X173891071Y-94687380D02*
X173795833Y-94639761D01*
X173795833Y-94639761D02*
X173748214Y-94592142D01*
X173748214Y-94592142D02*
X173700595Y-94496904D01*
X173700595Y-94496904D02*
X173652976Y-94306428D01*
X173652976Y-94306428D02*
X173652976Y-94068333D01*
X173652976Y-94068333D02*
X173700595Y-93877857D01*
X173700595Y-93877857D02*
X173748214Y-93782619D01*
X173748214Y-93782619D02*
X173795833Y-93735000D01*
X173795833Y-93735000D02*
X173891071Y-93687380D01*
X149833333Y-87717380D02*
X149500000Y-87241190D01*
X149261905Y-87717380D02*
X149261905Y-86717380D01*
X149261905Y-86717380D02*
X149642857Y-86717380D01*
X149642857Y-86717380D02*
X149738095Y-86765000D01*
X149738095Y-86765000D02*
X149785714Y-86812619D01*
X149785714Y-86812619D02*
X149833333Y-86907857D01*
X149833333Y-86907857D02*
X149833333Y-87050714D01*
X149833333Y-87050714D02*
X149785714Y-87145952D01*
X149785714Y-87145952D02*
X149738095Y-87193571D01*
X149738095Y-87193571D02*
X149642857Y-87241190D01*
X149642857Y-87241190D02*
X149261905Y-87241190D01*
X150214286Y-86812619D02*
X150261905Y-86765000D01*
X150261905Y-86765000D02*
X150357143Y-86717380D01*
X150357143Y-86717380D02*
X150595238Y-86717380D01*
X150595238Y-86717380D02*
X150690476Y-86765000D01*
X150690476Y-86765000D02*
X150738095Y-86812619D01*
X150738095Y-86812619D02*
X150785714Y-86907857D01*
X150785714Y-86907857D02*
X150785714Y-87003095D01*
X150785714Y-87003095D02*
X150738095Y-87145952D01*
X150738095Y-87145952D02*
X150166667Y-87717380D01*
X150166667Y-87717380D02*
X150785714Y-87717380D01*
X120833333Y-93717380D02*
X120500000Y-93241190D01*
X120261905Y-93717380D02*
X120261905Y-92717380D01*
X120261905Y-92717380D02*
X120642857Y-92717380D01*
X120642857Y-92717380D02*
X120738095Y-92765000D01*
X120738095Y-92765000D02*
X120785714Y-92812619D01*
X120785714Y-92812619D02*
X120833333Y-92907857D01*
X120833333Y-92907857D02*
X120833333Y-93050714D01*
X120833333Y-93050714D02*
X120785714Y-93145952D01*
X120785714Y-93145952D02*
X120738095Y-93193571D01*
X120738095Y-93193571D02*
X120642857Y-93241190D01*
X120642857Y-93241190D02*
X120261905Y-93241190D01*
X121166667Y-92717380D02*
X121785714Y-92717380D01*
X121785714Y-92717380D02*
X121452381Y-93098333D01*
X121452381Y-93098333D02*
X121595238Y-93098333D01*
X121595238Y-93098333D02*
X121690476Y-93145952D01*
X121690476Y-93145952D02*
X121738095Y-93193571D01*
X121738095Y-93193571D02*
X121785714Y-93288809D01*
X121785714Y-93288809D02*
X121785714Y-93526904D01*
X121785714Y-93526904D02*
X121738095Y-93622142D01*
X121738095Y-93622142D02*
X121690476Y-93669761D01*
X121690476Y-93669761D02*
X121595238Y-93717380D01*
X121595238Y-93717380D02*
X121309524Y-93717380D01*
X121309524Y-93717380D02*
X121214286Y-93669761D01*
X121214286Y-93669761D02*
X121166667Y-93622142D01*
X116609905Y-88887380D02*
X116609905Y-87887380D01*
X116609905Y-87887380D02*
X116848000Y-87887380D01*
X116848000Y-87887380D02*
X116990857Y-87935000D01*
X116990857Y-87935000D02*
X117086095Y-88030238D01*
X117086095Y-88030238D02*
X117133714Y-88125476D01*
X117133714Y-88125476D02*
X117181333Y-88315952D01*
X117181333Y-88315952D02*
X117181333Y-88458809D01*
X117181333Y-88458809D02*
X117133714Y-88649285D01*
X117133714Y-88649285D02*
X117086095Y-88744523D01*
X117086095Y-88744523D02*
X116990857Y-88839761D01*
X116990857Y-88839761D02*
X116848000Y-88887380D01*
X116848000Y-88887380D02*
X116609905Y-88887380D01*
X118133714Y-88887380D02*
X117562286Y-88887380D01*
X117848000Y-88887380D02*
X117848000Y-87887380D01*
X117848000Y-87887380D02*
X117752762Y-88030238D01*
X117752762Y-88030238D02*
X117657524Y-88125476D01*
X117657524Y-88125476D02*
X117562286Y-88173095D01*
X195326095Y-96497380D02*
X195326095Y-95497380D01*
X195326095Y-95973571D02*
X195897523Y-95973571D01*
X195897523Y-96497380D02*
X195897523Y-95497380D01*
X196802285Y-95830714D02*
X196802285Y-96497380D01*
X196564190Y-95449761D02*
X196326095Y-96164047D01*
X196326095Y-96164047D02*
X196945142Y-96164047D01*
X120833333Y-97717380D02*
X120500000Y-97241190D01*
X120261905Y-97717380D02*
X120261905Y-96717380D01*
X120261905Y-96717380D02*
X120642857Y-96717380D01*
X120642857Y-96717380D02*
X120738095Y-96765000D01*
X120738095Y-96765000D02*
X120785714Y-96812619D01*
X120785714Y-96812619D02*
X120833333Y-96907857D01*
X120833333Y-96907857D02*
X120833333Y-97050714D01*
X120833333Y-97050714D02*
X120785714Y-97145952D01*
X120785714Y-97145952D02*
X120738095Y-97193571D01*
X120738095Y-97193571D02*
X120642857Y-97241190D01*
X120642857Y-97241190D02*
X120261905Y-97241190D01*
X121738095Y-96717380D02*
X121261905Y-96717380D01*
X121261905Y-96717380D02*
X121214286Y-97193571D01*
X121214286Y-97193571D02*
X121261905Y-97145952D01*
X121261905Y-97145952D02*
X121357143Y-97098333D01*
X121357143Y-97098333D02*
X121595238Y-97098333D01*
X121595238Y-97098333D02*
X121690476Y-97145952D01*
X121690476Y-97145952D02*
X121738095Y-97193571D01*
X121738095Y-97193571D02*
X121785714Y-97288809D01*
X121785714Y-97288809D02*
X121785714Y-97526904D01*
X121785714Y-97526904D02*
X121738095Y-97622142D01*
X121738095Y-97622142D02*
X121690476Y-97669761D01*
X121690476Y-97669761D02*
X121595238Y-97717380D01*
X121595238Y-97717380D02*
X121357143Y-97717380D01*
X121357143Y-97717380D02*
X121261905Y-97669761D01*
X121261905Y-97669761D02*
X121214286Y-97622142D01*
X129795833Y-87592142D02*
X129748214Y-87639761D01*
X129748214Y-87639761D02*
X129605357Y-87687380D01*
X129605357Y-87687380D02*
X129510119Y-87687380D01*
X129510119Y-87687380D02*
X129367262Y-87639761D01*
X129367262Y-87639761D02*
X129272024Y-87544523D01*
X129272024Y-87544523D02*
X129224405Y-87449285D01*
X129224405Y-87449285D02*
X129176786Y-87258809D01*
X129176786Y-87258809D02*
X129176786Y-87115952D01*
X129176786Y-87115952D02*
X129224405Y-86925476D01*
X129224405Y-86925476D02*
X129272024Y-86830238D01*
X129272024Y-86830238D02*
X129367262Y-86735000D01*
X129367262Y-86735000D02*
X129510119Y-86687380D01*
X129510119Y-86687380D02*
X129605357Y-86687380D01*
X129605357Y-86687380D02*
X129748214Y-86735000D01*
X129748214Y-86735000D02*
X129795833Y-86782619D01*
X130272024Y-87687380D02*
X130462500Y-87687380D01*
X130462500Y-87687380D02*
X130557738Y-87639761D01*
X130557738Y-87639761D02*
X130605357Y-87592142D01*
X130605357Y-87592142D02*
X130700595Y-87449285D01*
X130700595Y-87449285D02*
X130748214Y-87258809D01*
X130748214Y-87258809D02*
X130748214Y-86877857D01*
X130748214Y-86877857D02*
X130700595Y-86782619D01*
X130700595Y-86782619D02*
X130652976Y-86735000D01*
X130652976Y-86735000D02*
X130557738Y-86687380D01*
X130557738Y-86687380D02*
X130367262Y-86687380D01*
X130367262Y-86687380D02*
X130272024Y-86735000D01*
X130272024Y-86735000D02*
X130224405Y-86782619D01*
X130224405Y-86782619D02*
X130176786Y-86877857D01*
X130176786Y-86877857D02*
X130176786Y-87115952D01*
X130176786Y-87115952D02*
X130224405Y-87211190D01*
X130224405Y-87211190D02*
X130272024Y-87258809D01*
X130272024Y-87258809D02*
X130367262Y-87306428D01*
X130367262Y-87306428D02*
X130557738Y-87306428D01*
X130557738Y-87306428D02*
X130652976Y-87258809D01*
X130652976Y-87258809D02*
X130700595Y-87211190D01*
X130700595Y-87211190D02*
X130748214Y-87115952D01*
X163576190Y-101840380D02*
X163576190Y-100840380D01*
X163576190Y-100840380D02*
X163957142Y-100840380D01*
X163957142Y-100840380D02*
X164052380Y-100888000D01*
X164052380Y-100888000D02*
X164099999Y-100935619D01*
X164099999Y-100935619D02*
X164147618Y-101030857D01*
X164147618Y-101030857D02*
X164147618Y-101173714D01*
X164147618Y-101173714D02*
X164099999Y-101268952D01*
X164099999Y-101268952D02*
X164052380Y-101316571D01*
X164052380Y-101316571D02*
X163957142Y-101364190D01*
X163957142Y-101364190D02*
X163576190Y-101364190D01*
X165052380Y-101840380D02*
X164576190Y-101840380D01*
X164576190Y-101840380D02*
X164576190Y-100840380D01*
X165338095Y-101554666D02*
X165814285Y-101554666D01*
X165242857Y-101840380D02*
X165576190Y-100840380D01*
X165576190Y-100840380D02*
X165909523Y-101840380D01*
X166433333Y-101364190D02*
X166433333Y-101840380D01*
X166100000Y-100840380D02*
X166433333Y-101364190D01*
X166433333Y-101364190D02*
X166766666Y-100840380D01*
D11*
X116358936Y-93753000D02*
X116813064Y-93753000D01*
X116358936Y-95223000D02*
X116813064Y-95223000D01*
X188227064Y-99735000D02*
X187772936Y-99735000D01*
X188227064Y-98265000D02*
X187772936Y-98265000D01*
X181701248Y-88265000D02*
X182223752Y-88265000D01*
X181701248Y-89735000D02*
X182223752Y-89735000D01*
X188227064Y-95735000D02*
X187772936Y-95735000D01*
X188227064Y-94265000D02*
X187772936Y-94265000D01*
X144772936Y-88265000D02*
X145227064Y-88265000D01*
X144772936Y-89735000D02*
X145227064Y-89735000D01*
X152138748Y-93499000D02*
X152661252Y-93499000D01*
X152138748Y-94969000D02*
X152661252Y-94969000D01*
X159538936Y-89181000D02*
X159993064Y-89181000D01*
X159538936Y-90651000D02*
X159993064Y-90651000D01*
X175240000Y-93220000D02*
X176240000Y-93220000D01*
X175240000Y-94220000D02*
X175240000Y-93220000D01*
X177240000Y-95220000D02*
X177240000Y-97820000D01*
X183240000Y-93270000D02*
X177440000Y-93270000D01*
X183340000Y-99770000D02*
X177340000Y-99770000D01*
X183440000Y-95220000D02*
X183440000Y-97820000D01*
X155474936Y-89181000D02*
X155929064Y-89181000D01*
X155474936Y-90651000D02*
X155929064Y-90651000D01*
X114890000Y-60880000D02*
X114890000Y-76480000D01*
X114890000Y-76480000D02*
X118990000Y-77880000D01*
X118990000Y-58130000D02*
X118990000Y-59380000D01*
X118990000Y-59380000D02*
X114890000Y-60880000D01*
X118990000Y-77880000D02*
X118990000Y-85530000D01*
X118990000Y-85530000D02*
X120040000Y-85530000D01*
X120040000Y-55280000D02*
X120040000Y-58130000D01*
X120040000Y-58130000D02*
X118990000Y-58130000D01*
X120040000Y-85530000D02*
X120040000Y-88380000D01*
X124840000Y-58130000D02*
X124840000Y-55280000D01*
X124840000Y-85530000D02*
X185040000Y-85530000D01*
X124840000Y-88380000D02*
X124840000Y-85530000D01*
X161140000Y-87380000D02*
X161940000Y-85980000D01*
X161140000Y-87380000D02*
X162740000Y-87380000D01*
X161940000Y-85980000D02*
X162740000Y-87380000D01*
X185040000Y-55280000D02*
X185040000Y-58130000D01*
X185040000Y-58130000D02*
X124840000Y-58130000D01*
X185040000Y-85530000D02*
X185040000Y-88380000D01*
X189840000Y-58130000D02*
X189840000Y-55280000D01*
X189840000Y-85530000D02*
X190890000Y-85530000D01*
X189840000Y-88380000D02*
X189840000Y-85530000D01*
X190890000Y-58130000D02*
X189840000Y-58130000D01*
X190890000Y-85530000D02*
X190890000Y-58130000D01*
X124840000Y-55280000D02*
G75*
G03*
X120040000Y-55280000I-2400000J0D01*
G01*
X120040000Y-88380000D02*
G75*
G03*
X124840000Y-88380000I2400000J0D01*
G01*
X189840000Y-55280000D02*
G75*
G03*
X185040000Y-55280000I-2400000J0D01*
G01*
X185040000Y-88380000D02*
G75*
G03*
X189840000Y-88380000I2400000J0D01*
G01*
X124440000Y-93220000D02*
X125440000Y-93220000D01*
X124440000Y-94220000D02*
X124440000Y-93220000D01*
X126440000Y-95220000D02*
X126440000Y-97820000D01*
X132440000Y-93270000D02*
X126640000Y-93270000D01*
X132540000Y-99770000D02*
X126540000Y-99770000D01*
X132640000Y-95220000D02*
X132640000Y-97820000D01*
X139680000Y-93220000D02*
X140680000Y-93220000D01*
X139680000Y-94220000D02*
X139680000Y-93220000D01*
X141680000Y-95220000D02*
X141680000Y-97820000D01*
X147680000Y-93270000D02*
X141880000Y-93270000D01*
X147780000Y-99770000D02*
X141780000Y-99770000D01*
X147880000Y-95220000D02*
X147880000Y-97820000D01*
X172701248Y-95265000D02*
X173223752Y-95265000D01*
X172701248Y-96735000D02*
X173223752Y-96735000D01*
X149772936Y-88265000D02*
X150227064Y-88265000D01*
X149772936Y-89735000D02*
X150227064Y-89735000D01*
X120772936Y-94265000D02*
X121227064Y-94265000D01*
X120772936Y-95735000D02*
X121227064Y-95735000D01*
X115488000Y-89210000D02*
X115488000Y-91130000D01*
X115488000Y-91130000D02*
X118348000Y-91130000D01*
X118348000Y-89210000D02*
X115488000Y-89210000D01*
X120772936Y-98265000D02*
X121227064Y-98265000D01*
X120772936Y-99735000D02*
X121227064Y-99735000D01*
X129701248Y-88265000D02*
X130223752Y-88265000D01*
X129701248Y-89735000D02*
X130223752Y-89735000D01*
X160000000Y-93220000D02*
X161000000Y-93220000D01*
X160000000Y-94220000D02*
X160000000Y-93220000D01*
X162000000Y-95220000D02*
X162000000Y-97820000D01*
X168000000Y-93270000D02*
X162200000Y-93270000D01*
X168100000Y-99770000D02*
X162100000Y-99770000D01*
X168200000Y-95220000D02*
X168200000Y-97820000D01*
M02*
