G04 #@! TF.GenerationSoftware,KiCad,Pcbnew,(7.0.0)*
G04 #@! TF.CreationDate,2023-04-10T23:45:16-05:00*
G04 #@! TF.ProjectId,Phone_Audio_FM_Transmitter,50686f6e-655f-4417-9564-696f5f464d5f,2.1*
G04 #@! TF.SameCoordinates,Original*
G04 #@! TF.FileFunction,Soldermask,Bot*
G04 #@! TF.FilePolarity,Negative*
%FSLAX46Y46*%
G04 Gerber Fmt 4.6, Leading zero omitted, Abs format (unit mm)*
G04 Created by KiCad (PCBNEW (7.0.0)) date 2023-04-10 23:45:16*
%MOMM*%
%LPD*%
G01*
G04 APERTURE LIST*
G04 Aperture macros list*
%AMRoundRect*
0 Rectangle with rounded corners*
0 $1 Rounding radius*
0 $2 $3 $4 $5 $6 $7 $8 $9 X,Y pos of 4 corners*
0 Add a 4 corners polygon primitive as box body*
4,1,4,$2,$3,$4,$5,$6,$7,$8,$9,$2,$3,0*
0 Add four circle primitives for the rounded corners*
1,1,$1+$1,$2,$3*
1,1,$1+$1,$4,$5*
1,1,$1+$1,$6,$7*
1,1,$1+$1,$8,$9*
0 Add four rect primitives between the rounded corners*
20,1,$1+$1,$2,$3,$4,$5,0*
20,1,$1+$1,$4,$5,$6,$7,0*
20,1,$1+$1,$6,$7,$8,$9,0*
20,1,$1+$1,$8,$9,$2,$3,0*%
%AMFreePoly0*
4,1,25,3.555000,-1.595000,1.645000,-1.595000,1.500000,-1.420000,1.360000,-1.280000,1.205000,-1.155000,1.035000,-1.045000,0.860000,-0.950000,0.675000,-0.875000,0.480000,-0.820000,0.280000,-0.780000,0.085000,-0.765000,-0.085000,-0.765000,-0.280000,-0.780000,-0.480000,-0.820000,-0.675000,-0.875000,-0.860000,-0.950000,-1.035000,-1.045000,-1.205000,-1.155000,-1.360000,-1.280000,-1.500000,-1.420000,
-1.645000,-1.595000,-3.555000,-1.595000,-3.555000,0.755000,3.555000,0.755000,3.555000,-1.595000,3.555000,-1.595000,$1*%
G04 Aperture macros list end*
%ADD10R,1.050000X1.100000*%
%ADD11RoundRect,0.250000X0.350000X0.450000X-0.350000X0.450000X-0.350000X-0.450000X0.350000X-0.450000X0*%
%ADD12RoundRect,0.250000X-0.475000X0.337500X-0.475000X-0.337500X0.475000X-0.337500X0.475000X0.337500X0*%
%ADD13C,3.200000*%
%ADD14RoundRect,0.250000X-0.620000X-0.845000X0.620000X-0.845000X0.620000X0.845000X-0.620000X0.845000X0*%
%ADD15O,1.740000X2.190000*%
%ADD16C,2.500000*%
%ADD17R,1.600000X1.600000*%
%ADD18C,1.600000*%
%ADD19O,1.800000X3.400000*%
%ADD20RoundRect,0.250000X0.450000X-0.350000X0.450000X0.350000X-0.450000X0.350000X-0.450000X-0.350000X0*%
%ADD21RoundRect,0.250000X-0.337500X-0.475000X0.337500X-0.475000X0.337500X0.475000X-0.337500X0.475000X0*%
%ADD22RoundRect,0.250000X0.337500X0.475000X-0.337500X0.475000X-0.337500X-0.475000X0.337500X-0.475000X0*%
%ADD23R,1.000000X0.700000*%
%ADD24R,0.600000X0.700000*%
%ADD25RoundRect,0.250000X-0.450000X0.350000X-0.450000X-0.350000X0.450000X-0.350000X0.450000X0.350000X0*%
%ADD26RoundRect,0.250000X-0.450000X0.325000X-0.450000X-0.325000X0.450000X-0.325000X0.450000X0.325000X0*%
%ADD27RoundRect,0.062500X-0.337500X-0.062500X0.337500X-0.062500X0.337500X0.062500X-0.337500X0.062500X0*%
%ADD28RoundRect,0.062500X-0.062500X-0.337500X0.062500X-0.337500X0.062500X0.337500X-0.062500X0.337500X0*%
%ADD29R,3.350000X3.350000*%
%ADD30R,1.500000X0.900000*%
%ADD31R,0.900000X1.500000*%
%ADD32C,0.600000*%
%ADD33R,4.200000X4.200000*%
%ADD34RoundRect,0.250001X0.462499X0.624999X-0.462499X0.624999X-0.462499X-0.624999X0.462499X-0.624999X0*%
%ADD35R,1.350000X0.400000*%
%ADD36O,1.550000X0.890000*%
%ADD37R,1.550000X1.200000*%
%ADD38O,0.950000X1.250000*%
%ADD39R,1.550000X1.500000*%
%ADD40C,1.730000*%
%ADD41FreePoly0,180.000000*%
%ADD42FreePoly0,0.000000*%
%ADD43RoundRect,0.250000X0.620000X0.845000X-0.620000X0.845000X-0.620000X-0.845000X0.620000X-0.845000X0*%
%ADD44R,0.300000X0.300000*%
%ADD45R,0.900000X0.300000*%
%ADD46R,0.300000X0.900000*%
%ADD47R,1.800000X1.800000*%
%ADD48RoundRect,0.250000X-0.350000X-0.450000X0.350000X-0.450000X0.350000X0.450000X-0.350000X0.450000X0*%
%ADD49RoundRect,0.150000X0.825000X0.150000X-0.825000X0.150000X-0.825000X-0.150000X0.825000X-0.150000X0*%
G04 APERTURE END LIST*
D10*
X172654399Y-75234799D03*
X170804399Y-75234799D03*
D11*
X184235600Y-84709000D03*
X182235600Y-84709000D03*
D12*
X172643800Y-77219900D03*
X172643800Y-79294900D03*
X170586400Y-77219900D03*
X170586400Y-79294900D03*
D13*
X113538000Y-100330000D03*
X113538000Y-49530000D03*
X196088000Y-49530000D03*
D14*
X195580000Y-76200000D03*
D15*
X198119999Y-76199999D03*
D16*
X122440000Y-55280000D03*
X122440000Y-88380000D03*
X187440000Y-55280000D03*
X187440000Y-88380000D03*
D17*
X161939999Y-84479999D03*
D18*
X159940000Y-84480000D03*
X157940000Y-84480000D03*
X155940000Y-84480000D03*
X153940000Y-84480000D03*
X151940000Y-84480000D03*
X149940000Y-84480000D03*
X147940000Y-84480000D03*
D19*
X116389999Y-72829999D03*
X116389999Y-64329999D03*
D14*
X194183000Y-57480200D03*
D15*
X196722999Y-57480199D03*
X199262999Y-57480199D03*
D13*
X196088000Y-100330000D03*
D14*
X195580000Y-66040000D03*
D15*
X198119999Y-66039999D03*
D20*
X129692400Y-61163200D03*
X129692400Y-59163200D03*
X115239800Y-80730600D03*
X115239800Y-78730600D03*
D12*
X172466000Y-59668500D03*
X172466000Y-61743500D03*
D21*
X151895900Y-82194400D03*
X153970900Y-82194400D03*
D22*
X131593500Y-78232000D03*
X129518500Y-78232000D03*
D23*
X121322399Y-62880999D03*
D24*
X123022399Y-62880999D03*
X123022399Y-64880999D03*
X121122399Y-64880999D03*
D25*
X140970000Y-73660000D03*
X140970000Y-75660000D03*
D12*
X125730000Y-73363000D03*
X125730000Y-75438000D03*
D26*
X192252600Y-63338600D03*
X192252600Y-65388600D03*
D27*
X133377600Y-63882400D03*
X133377600Y-63382400D03*
X133377600Y-62882400D03*
X133377600Y-62382400D03*
X133377600Y-61882400D03*
X133377600Y-61382400D03*
X133377600Y-60882400D03*
D28*
X134327600Y-59932400D03*
X134827600Y-59932400D03*
X135327600Y-59932400D03*
X135827600Y-59932400D03*
X136327600Y-59932400D03*
X136827600Y-59932400D03*
X137327600Y-59932400D03*
D27*
X138277600Y-60882400D03*
X138277600Y-61382400D03*
X138277600Y-61882400D03*
X138277600Y-62382400D03*
X138277600Y-62882400D03*
X138277600Y-63382400D03*
X138277600Y-63882400D03*
D28*
X137327600Y-64832400D03*
X136827600Y-64832400D03*
X136327600Y-64832400D03*
X135827600Y-64832400D03*
X135327600Y-64832400D03*
X134827600Y-64832400D03*
X134327600Y-64832400D03*
D29*
X135827599Y-62382399D03*
D30*
X165213999Y-59522999D03*
X165213999Y-60792999D03*
X165213999Y-62062999D03*
X165213999Y-63332999D03*
X165213999Y-64602999D03*
X165213999Y-65872999D03*
X165213999Y-67142999D03*
X165213999Y-68412999D03*
X165213999Y-69682999D03*
X165213999Y-70952999D03*
X165213999Y-72222999D03*
X165213999Y-73492999D03*
X165213999Y-74762999D03*
X165213999Y-76032999D03*
D31*
X162173999Y-77282999D03*
X160903999Y-77282999D03*
X159633999Y-77282999D03*
X158363999Y-77282999D03*
X157093999Y-77282999D03*
X155823999Y-77282999D03*
X154553999Y-77282999D03*
X153283999Y-77282999D03*
X152013999Y-77282999D03*
X150743999Y-77282999D03*
D30*
X147713999Y-76032999D03*
X147713999Y-74762999D03*
X147713999Y-73492999D03*
X147713999Y-72222999D03*
X147713999Y-70952999D03*
X147713999Y-69682999D03*
X147713999Y-68412999D03*
X147713999Y-67142999D03*
X147713999Y-65872999D03*
X147713999Y-64602999D03*
X147713999Y-63332999D03*
X147713999Y-62062999D03*
X147713999Y-60792999D03*
X147713999Y-59522999D03*
D32*
X158669000Y-67625500D03*
X158669000Y-66100500D03*
X157906500Y-68388000D03*
X157906500Y-66863000D03*
X157906500Y-65338000D03*
X157144000Y-67625500D03*
D33*
X157143999Y-66862999D03*
D32*
X157144000Y-66100500D03*
X156381500Y-68388000D03*
X156381500Y-66863000D03*
X156381500Y-65338000D03*
X155619000Y-67625500D03*
X155619000Y-66100500D03*
D34*
X133059500Y-68834000D03*
X130084500Y-68834000D03*
D26*
X128778000Y-73397000D03*
X128778000Y-75447000D03*
D35*
X112753599Y-69981599D03*
X112753599Y-69331599D03*
X112753599Y-68681599D03*
X112753599Y-68031599D03*
X112753599Y-67381599D03*
D36*
X110053599Y-72181599D03*
D37*
X110053599Y-71581599D03*
D38*
X112753599Y-71181599D03*
D39*
X110053599Y-69681599D03*
X110053599Y-67681599D03*
D38*
X112753599Y-66181599D03*
D37*
X110053599Y-65781599D03*
D36*
X110053599Y-65181599D03*
D11*
X174583600Y-65125600D03*
X172583600Y-65125600D03*
D21*
X151743500Y-86868000D03*
X153818500Y-86868000D03*
D40*
X186182000Y-76200000D03*
D41*
X186182000Y-79000000D03*
D42*
X186182000Y-73400000D03*
D12*
X167386000Y-59668500D03*
X167386000Y-61743500D03*
D43*
X115214400Y-55569800D03*
D15*
X112674399Y-55569799D03*
D21*
X174578100Y-68529200D03*
X176653100Y-68529200D03*
X127003900Y-63144400D03*
X129078900Y-63144400D03*
D44*
X179361999Y-63969999D03*
D45*
X179661999Y-64469999D03*
X179661999Y-64969999D03*
X179661999Y-65469999D03*
X179661999Y-65969999D03*
D44*
X179361999Y-66469999D03*
D46*
X178861999Y-66769999D03*
X178361999Y-66769999D03*
X177861999Y-66769999D03*
X177361999Y-66769999D03*
D44*
X176861999Y-66469999D03*
D45*
X176561999Y-65969999D03*
X176561999Y-65469999D03*
X176561999Y-64969999D03*
X176561999Y-64469999D03*
D44*
X176861999Y-63969999D03*
D46*
X177361999Y-63669999D03*
X177861999Y-63669999D03*
X178361999Y-63669999D03*
X178861999Y-63669999D03*
D47*
X178111999Y-65219999D03*
D48*
X178857400Y-59359800D03*
X180857400Y-59359800D03*
D22*
X149906900Y-82194400D03*
X147831900Y-82194400D03*
X136144000Y-78232000D03*
X134069000Y-78232000D03*
D26*
X181102000Y-72685800D03*
X181102000Y-74735800D03*
D25*
X118541800Y-78705200D03*
X118541800Y-80705200D03*
D48*
X183429400Y-59385200D03*
X185429400Y-59385200D03*
D20*
X122682000Y-75400500D03*
X122682000Y-73400500D03*
D21*
X140673000Y-68834000D03*
X142748000Y-68834000D03*
D20*
X124002800Y-61172600D03*
X124002800Y-59172600D03*
D22*
X138727000Y-68834000D03*
X136652000Y-68834000D03*
D25*
X169926000Y-59706000D03*
X169926000Y-61706000D03*
D20*
X127000000Y-61096400D03*
X127000000Y-59096400D03*
D40*
X186182000Y-67030000D03*
D41*
X186182000Y-69830000D03*
D42*
X186182000Y-64230000D03*
D43*
X177800000Y-88900000D03*
D15*
X175259999Y-88899999D03*
X172719999Y-88899999D03*
X170179999Y-88899999D03*
X167639999Y-88899999D03*
D21*
X174578100Y-81229200D03*
X176653100Y-81229200D03*
D49*
X137095000Y-71755000D03*
X137095000Y-73025000D03*
X137095000Y-74295000D03*
X137095000Y-75565000D03*
X132145000Y-75565000D03*
X132145000Y-74295000D03*
X132145000Y-73025000D03*
X132145000Y-71755000D03*
D44*
X179361999Y-76669999D03*
D45*
X179661999Y-77169999D03*
X179661999Y-77669999D03*
X179661999Y-78169999D03*
X179661999Y-78669999D03*
D44*
X179361999Y-79169999D03*
D46*
X178861999Y-79469999D03*
X178361999Y-79469999D03*
X177861999Y-79469999D03*
X177361999Y-79469999D03*
D44*
X176861999Y-79169999D03*
D45*
X176561999Y-78669999D03*
X176561999Y-78169999D03*
X176561999Y-77669999D03*
X176561999Y-77169999D03*
D44*
X176861999Y-76669999D03*
D46*
X177361999Y-76369999D03*
X177861999Y-76369999D03*
X178361999Y-76369999D03*
X178861999Y-76369999D03*
D47*
X178111999Y-77919999D03*
M02*
