G04 #@! TF.GenerationSoftware,KiCad,Pcbnew,(7.0.0)*
G04 #@! TF.CreationDate,2023-04-10T23:45:16-05:00*
G04 #@! TF.ProjectId,Phone_Audio_FM_Transmitter,50686f6e-655f-4417-9564-696f5f464d5f,2.1*
G04 #@! TF.SameCoordinates,Original*
G04 #@! TF.FileFunction,Legend,Top*
G04 #@! TF.FilePolarity,Positive*
%FSLAX46Y46*%
G04 Gerber Fmt 4.6, Leading zero omitted, Abs format (unit mm)*
G04 Created by KiCad (PCBNEW (7.0.0)) date 2023-04-10 23:45:16*
%MOMM*%
%LPD*%
G01*
G04 APERTURE LIST*
%ADD10C,0.150000*%
%ADD11C,0.120000*%
G04 APERTURE END LIST*
D10*
X165195238Y-102922380D02*
X165766666Y-102922380D01*
X165480952Y-103922380D02*
X165480952Y-102922380D01*
X166480952Y-103874761D02*
X166385714Y-103922380D01*
X166385714Y-103922380D02*
X166195238Y-103922380D01*
X166195238Y-103922380D02*
X166100000Y-103874761D01*
X166100000Y-103874761D02*
X166052381Y-103779523D01*
X166052381Y-103779523D02*
X166052381Y-103398571D01*
X166052381Y-103398571D02*
X166100000Y-103303333D01*
X166100000Y-103303333D02*
X166195238Y-103255714D01*
X166195238Y-103255714D02*
X166385714Y-103255714D01*
X166385714Y-103255714D02*
X166480952Y-103303333D01*
X166480952Y-103303333D02*
X166528571Y-103398571D01*
X166528571Y-103398571D02*
X166528571Y-103493809D01*
X166528571Y-103493809D02*
X166052381Y-103589047D01*
X167385714Y-103922380D02*
X167385714Y-103398571D01*
X167385714Y-103398571D02*
X167338095Y-103303333D01*
X167338095Y-103303333D02*
X167242857Y-103255714D01*
X167242857Y-103255714D02*
X167052381Y-103255714D01*
X167052381Y-103255714D02*
X166957143Y-103303333D01*
X167385714Y-103874761D02*
X167290476Y-103922380D01*
X167290476Y-103922380D02*
X167052381Y-103922380D01*
X167052381Y-103922380D02*
X166957143Y-103874761D01*
X166957143Y-103874761D02*
X166909524Y-103779523D01*
X166909524Y-103779523D02*
X166909524Y-103684285D01*
X166909524Y-103684285D02*
X166957143Y-103589047D01*
X166957143Y-103589047D02*
X167052381Y-103541428D01*
X167052381Y-103541428D02*
X167290476Y-103541428D01*
X167290476Y-103541428D02*
X167385714Y-103493809D01*
X167861905Y-103922380D02*
X167861905Y-103255714D01*
X167861905Y-103350952D02*
X167909524Y-103303333D01*
X167909524Y-103303333D02*
X168004762Y-103255714D01*
X168004762Y-103255714D02*
X168147619Y-103255714D01*
X168147619Y-103255714D02*
X168242857Y-103303333D01*
X168242857Y-103303333D02*
X168290476Y-103398571D01*
X168290476Y-103398571D02*
X168290476Y-103922380D01*
X168290476Y-103398571D02*
X168338095Y-103303333D01*
X168338095Y-103303333D02*
X168433333Y-103255714D01*
X168433333Y-103255714D02*
X168576190Y-103255714D01*
X168576190Y-103255714D02*
X168671429Y-103303333D01*
X168671429Y-103303333D02*
X168719048Y-103398571D01*
X168719048Y-103398571D02*
X168719048Y-103922380D01*
X170319047Y-103922380D02*
X169747619Y-103922380D01*
X170033333Y-103922380D02*
X170033333Y-102922380D01*
X170033333Y-102922380D02*
X169938095Y-103065238D01*
X169938095Y-103065238D02*
X169842857Y-103160476D01*
X169842857Y-103160476D02*
X169747619Y-103208095D01*
X170890476Y-103350952D02*
X170795238Y-103303333D01*
X170795238Y-103303333D02*
X170747619Y-103255714D01*
X170747619Y-103255714D02*
X170700000Y-103160476D01*
X170700000Y-103160476D02*
X170700000Y-103112857D01*
X170700000Y-103112857D02*
X170747619Y-103017619D01*
X170747619Y-103017619D02*
X170795238Y-102970000D01*
X170795238Y-102970000D02*
X170890476Y-102922380D01*
X170890476Y-102922380D02*
X171080952Y-102922380D01*
X171080952Y-102922380D02*
X171176190Y-102970000D01*
X171176190Y-102970000D02*
X171223809Y-103017619D01*
X171223809Y-103017619D02*
X171271428Y-103112857D01*
X171271428Y-103112857D02*
X171271428Y-103160476D01*
X171271428Y-103160476D02*
X171223809Y-103255714D01*
X171223809Y-103255714D02*
X171176190Y-103303333D01*
X171176190Y-103303333D02*
X171080952Y-103350952D01*
X171080952Y-103350952D02*
X170890476Y-103350952D01*
X170890476Y-103350952D02*
X170795238Y-103398571D01*
X170795238Y-103398571D02*
X170747619Y-103446190D01*
X170747619Y-103446190D02*
X170700000Y-103541428D01*
X170700000Y-103541428D02*
X170700000Y-103731904D01*
X170700000Y-103731904D02*
X170747619Y-103827142D01*
X170747619Y-103827142D02*
X170795238Y-103874761D01*
X170795238Y-103874761D02*
X170890476Y-103922380D01*
X170890476Y-103922380D02*
X171080952Y-103922380D01*
X171080952Y-103922380D02*
X171176190Y-103874761D01*
X171176190Y-103874761D02*
X171223809Y-103827142D01*
X171223809Y-103827142D02*
X171271428Y-103731904D01*
X171271428Y-103731904D02*
X171271428Y-103541428D01*
X171271428Y-103541428D02*
X171223809Y-103446190D01*
X171223809Y-103446190D02*
X171176190Y-103398571D01*
X171176190Y-103398571D02*
X171080952Y-103350952D01*
X172633333Y-103398571D02*
X172776190Y-103446190D01*
X172776190Y-103446190D02*
X172823809Y-103493809D01*
X172823809Y-103493809D02*
X172871428Y-103589047D01*
X172871428Y-103589047D02*
X172871428Y-103731904D01*
X172871428Y-103731904D02*
X172823809Y-103827142D01*
X172823809Y-103827142D02*
X172776190Y-103874761D01*
X172776190Y-103874761D02*
X172680952Y-103922380D01*
X172680952Y-103922380D02*
X172300000Y-103922380D01*
X172300000Y-103922380D02*
X172300000Y-102922380D01*
X172300000Y-102922380D02*
X172633333Y-102922380D01*
X172633333Y-102922380D02*
X172728571Y-102970000D01*
X172728571Y-102970000D02*
X172776190Y-103017619D01*
X172776190Y-103017619D02*
X172823809Y-103112857D01*
X172823809Y-103112857D02*
X172823809Y-103208095D01*
X172823809Y-103208095D02*
X172776190Y-103303333D01*
X172776190Y-103303333D02*
X172728571Y-103350952D01*
X172728571Y-103350952D02*
X172633333Y-103398571D01*
X172633333Y-103398571D02*
X172300000Y-103398571D01*
X173442857Y-103922380D02*
X173347619Y-103874761D01*
X173347619Y-103874761D02*
X173300000Y-103827142D01*
X173300000Y-103827142D02*
X173252381Y-103731904D01*
X173252381Y-103731904D02*
X173252381Y-103446190D01*
X173252381Y-103446190D02*
X173300000Y-103350952D01*
X173300000Y-103350952D02*
X173347619Y-103303333D01*
X173347619Y-103303333D02*
X173442857Y-103255714D01*
X173442857Y-103255714D02*
X173585714Y-103255714D01*
X173585714Y-103255714D02*
X173680952Y-103303333D01*
X173680952Y-103303333D02*
X173728571Y-103350952D01*
X173728571Y-103350952D02*
X173776190Y-103446190D01*
X173776190Y-103446190D02*
X173776190Y-103731904D01*
X173776190Y-103731904D02*
X173728571Y-103827142D01*
X173728571Y-103827142D02*
X173680952Y-103874761D01*
X173680952Y-103874761D02*
X173585714Y-103922380D01*
X173585714Y-103922380D02*
X173442857Y-103922380D01*
X174633333Y-103922380D02*
X174633333Y-103398571D01*
X174633333Y-103398571D02*
X174585714Y-103303333D01*
X174585714Y-103303333D02*
X174490476Y-103255714D01*
X174490476Y-103255714D02*
X174300000Y-103255714D01*
X174300000Y-103255714D02*
X174204762Y-103303333D01*
X174633333Y-103874761D02*
X174538095Y-103922380D01*
X174538095Y-103922380D02*
X174300000Y-103922380D01*
X174300000Y-103922380D02*
X174204762Y-103874761D01*
X174204762Y-103874761D02*
X174157143Y-103779523D01*
X174157143Y-103779523D02*
X174157143Y-103684285D01*
X174157143Y-103684285D02*
X174204762Y-103589047D01*
X174204762Y-103589047D02*
X174300000Y-103541428D01*
X174300000Y-103541428D02*
X174538095Y-103541428D01*
X174538095Y-103541428D02*
X174633333Y-103493809D01*
X175109524Y-103922380D02*
X175109524Y-103255714D01*
X175109524Y-103446190D02*
X175157143Y-103350952D01*
X175157143Y-103350952D02*
X175204762Y-103303333D01*
X175204762Y-103303333D02*
X175300000Y-103255714D01*
X175300000Y-103255714D02*
X175395238Y-103255714D01*
X176157143Y-103922380D02*
X176157143Y-102922380D01*
X176157143Y-103874761D02*
X176061905Y-103922380D01*
X176061905Y-103922380D02*
X175871429Y-103922380D01*
X175871429Y-103922380D02*
X175776191Y-103874761D01*
X175776191Y-103874761D02*
X175728572Y-103827142D01*
X175728572Y-103827142D02*
X175680953Y-103731904D01*
X175680953Y-103731904D02*
X175680953Y-103446190D01*
X175680953Y-103446190D02*
X175728572Y-103350952D01*
X175728572Y-103350952D02*
X175776191Y-103303333D01*
X175776191Y-103303333D02*
X175871429Y-103255714D01*
X175871429Y-103255714D02*
X176061905Y-103255714D01*
X176061905Y-103255714D02*
X176157143Y-103303333D01*
X177804762Y-103922380D02*
X177471429Y-103446190D01*
X177233334Y-103922380D02*
X177233334Y-102922380D01*
X177233334Y-102922380D02*
X177614286Y-102922380D01*
X177614286Y-102922380D02*
X177709524Y-102970000D01*
X177709524Y-102970000D02*
X177757143Y-103017619D01*
X177757143Y-103017619D02*
X177804762Y-103112857D01*
X177804762Y-103112857D02*
X177804762Y-103255714D01*
X177804762Y-103255714D02*
X177757143Y-103350952D01*
X177757143Y-103350952D02*
X177709524Y-103398571D01*
X177709524Y-103398571D02*
X177614286Y-103446190D01*
X177614286Y-103446190D02*
X177233334Y-103446190D01*
X178614286Y-103874761D02*
X178519048Y-103922380D01*
X178519048Y-103922380D02*
X178328572Y-103922380D01*
X178328572Y-103922380D02*
X178233334Y-103874761D01*
X178233334Y-103874761D02*
X178185715Y-103779523D01*
X178185715Y-103779523D02*
X178185715Y-103398571D01*
X178185715Y-103398571D02*
X178233334Y-103303333D01*
X178233334Y-103303333D02*
X178328572Y-103255714D01*
X178328572Y-103255714D02*
X178519048Y-103255714D01*
X178519048Y-103255714D02*
X178614286Y-103303333D01*
X178614286Y-103303333D02*
X178661905Y-103398571D01*
X178661905Y-103398571D02*
X178661905Y-103493809D01*
X178661905Y-103493809D02*
X178185715Y-103589047D01*
X178995239Y-103255714D02*
X179233334Y-103922380D01*
X179233334Y-103922380D02*
X179471429Y-103255714D01*
X179852382Y-103827142D02*
X179900001Y-103874761D01*
X179900001Y-103874761D02*
X179852382Y-103922380D01*
X179852382Y-103922380D02*
X179804763Y-103874761D01*
X179804763Y-103874761D02*
X179852382Y-103827142D01*
X179852382Y-103827142D02*
X179852382Y-103922380D01*
X180880953Y-103017619D02*
X180928572Y-102970000D01*
X180928572Y-102970000D02*
X181023810Y-102922380D01*
X181023810Y-102922380D02*
X181261905Y-102922380D01*
X181261905Y-102922380D02*
X181357143Y-102970000D01*
X181357143Y-102970000D02*
X181404762Y-103017619D01*
X181404762Y-103017619D02*
X181452381Y-103112857D01*
X181452381Y-103112857D02*
X181452381Y-103208095D01*
X181452381Y-103208095D02*
X181404762Y-103350952D01*
X181404762Y-103350952D02*
X180833334Y-103922380D01*
X180833334Y-103922380D02*
X181452381Y-103922380D01*
X181880953Y-103827142D02*
X181928572Y-103874761D01*
X181928572Y-103874761D02*
X181880953Y-103922380D01*
X181880953Y-103922380D02*
X181833334Y-103874761D01*
X181833334Y-103874761D02*
X181880953Y-103827142D01*
X181880953Y-103827142D02*
X181880953Y-103922380D01*
X182880952Y-103922380D02*
X182309524Y-103922380D01*
X182595238Y-103922380D02*
X182595238Y-102922380D01*
X182595238Y-102922380D02*
X182500000Y-103065238D01*
X182500000Y-103065238D02*
X182404762Y-103160476D01*
X182404762Y-103160476D02*
X182309524Y-103208095D01*
X184100000Y-102922380D02*
X184195238Y-102922380D01*
X184195238Y-102922380D02*
X184290476Y-102970000D01*
X184290476Y-102970000D02*
X184338095Y-103017619D01*
X184338095Y-103017619D02*
X184385714Y-103112857D01*
X184385714Y-103112857D02*
X184433333Y-103303333D01*
X184433333Y-103303333D02*
X184433333Y-103541428D01*
X184433333Y-103541428D02*
X184385714Y-103731904D01*
X184385714Y-103731904D02*
X184338095Y-103827142D01*
X184338095Y-103827142D02*
X184290476Y-103874761D01*
X184290476Y-103874761D02*
X184195238Y-103922380D01*
X184195238Y-103922380D02*
X184100000Y-103922380D01*
X184100000Y-103922380D02*
X184004762Y-103874761D01*
X184004762Y-103874761D02*
X183957143Y-103827142D01*
X183957143Y-103827142D02*
X183909524Y-103731904D01*
X183909524Y-103731904D02*
X183861905Y-103541428D01*
X183861905Y-103541428D02*
X183861905Y-103303333D01*
X183861905Y-103303333D02*
X183909524Y-103112857D01*
X183909524Y-103112857D02*
X183957143Y-103017619D01*
X183957143Y-103017619D02*
X184004762Y-102970000D01*
X184004762Y-102970000D02*
X184100000Y-102922380D01*
X185290476Y-103255714D02*
X185290476Y-103922380D01*
X185052381Y-102874761D02*
X184814286Y-103589047D01*
X184814286Y-103589047D02*
X185433333Y-103589047D01*
X185814286Y-103541428D02*
X186576191Y-103541428D01*
X187576190Y-103922380D02*
X187004762Y-103922380D01*
X187290476Y-103922380D02*
X187290476Y-102922380D01*
X187290476Y-102922380D02*
X187195238Y-103065238D01*
X187195238Y-103065238D02*
X187100000Y-103160476D01*
X187100000Y-103160476D02*
X187004762Y-103208095D01*
X188195238Y-102922380D02*
X188290476Y-102922380D01*
X188290476Y-102922380D02*
X188385714Y-102970000D01*
X188385714Y-102970000D02*
X188433333Y-103017619D01*
X188433333Y-103017619D02*
X188480952Y-103112857D01*
X188480952Y-103112857D02*
X188528571Y-103303333D01*
X188528571Y-103303333D02*
X188528571Y-103541428D01*
X188528571Y-103541428D02*
X188480952Y-103731904D01*
X188480952Y-103731904D02*
X188433333Y-103827142D01*
X188433333Y-103827142D02*
X188385714Y-103874761D01*
X188385714Y-103874761D02*
X188290476Y-103922380D01*
X188290476Y-103922380D02*
X188195238Y-103922380D01*
X188195238Y-103922380D02*
X188100000Y-103874761D01*
X188100000Y-103874761D02*
X188052381Y-103827142D01*
X188052381Y-103827142D02*
X188004762Y-103731904D01*
X188004762Y-103731904D02*
X187957143Y-103541428D01*
X187957143Y-103541428D02*
X187957143Y-103303333D01*
X187957143Y-103303333D02*
X188004762Y-103112857D01*
X188004762Y-103112857D02*
X188052381Y-103017619D01*
X188052381Y-103017619D02*
X188100000Y-102970000D01*
X188100000Y-102970000D02*
X188195238Y-102922380D01*
X188957143Y-103541428D02*
X189719048Y-103541428D01*
X190147619Y-103017619D02*
X190195238Y-102970000D01*
X190195238Y-102970000D02*
X190290476Y-102922380D01*
X190290476Y-102922380D02*
X190528571Y-102922380D01*
X190528571Y-102922380D02*
X190623809Y-102970000D01*
X190623809Y-102970000D02*
X190671428Y-103017619D01*
X190671428Y-103017619D02*
X190719047Y-103112857D01*
X190719047Y-103112857D02*
X190719047Y-103208095D01*
X190719047Y-103208095D02*
X190671428Y-103350952D01*
X190671428Y-103350952D02*
X190100000Y-103922380D01*
X190100000Y-103922380D02*
X190719047Y-103922380D01*
X191052381Y-102922380D02*
X191671428Y-102922380D01*
X191671428Y-102922380D02*
X191338095Y-103303333D01*
X191338095Y-103303333D02*
X191480952Y-103303333D01*
X191480952Y-103303333D02*
X191576190Y-103350952D01*
X191576190Y-103350952D02*
X191623809Y-103398571D01*
X191623809Y-103398571D02*
X191671428Y-103493809D01*
X191671428Y-103493809D02*
X191671428Y-103731904D01*
X191671428Y-103731904D02*
X191623809Y-103827142D01*
X191623809Y-103827142D02*
X191576190Y-103874761D01*
X191576190Y-103874761D02*
X191480952Y-103922380D01*
X191480952Y-103922380D02*
X191195238Y-103922380D01*
X191195238Y-103922380D02*
X191100000Y-103874761D01*
X191100000Y-103874761D02*
X191052381Y-103827142D01*
X195140342Y-89446180D02*
X194807009Y-88969990D01*
X194568914Y-89446180D02*
X194568914Y-88446180D01*
X194568914Y-88446180D02*
X194949866Y-88446180D01*
X194949866Y-88446180D02*
X195045104Y-88493800D01*
X195045104Y-88493800D02*
X195092723Y-88541419D01*
X195092723Y-88541419D02*
X195140342Y-88636657D01*
X195140342Y-88636657D02*
X195140342Y-88779514D01*
X195140342Y-88779514D02*
X195092723Y-88874752D01*
X195092723Y-88874752D02*
X195045104Y-88922371D01*
X195045104Y-88922371D02*
X194949866Y-88969990D01*
X194949866Y-88969990D02*
X194568914Y-88969990D01*
X196092723Y-89446180D02*
X195521295Y-89446180D01*
X195807009Y-89446180D02*
X195807009Y-88446180D01*
X195807009Y-88446180D02*
X195711771Y-88589038D01*
X195711771Y-88589038D02*
X195616533Y-88684276D01*
X195616533Y-88684276D02*
X195521295Y-88731895D01*
X196711771Y-88446180D02*
X196807009Y-88446180D01*
X196807009Y-88446180D02*
X196902247Y-88493800D01*
X196902247Y-88493800D02*
X196949866Y-88541419D01*
X196949866Y-88541419D02*
X196997485Y-88636657D01*
X196997485Y-88636657D02*
X197045104Y-88827133D01*
X197045104Y-88827133D02*
X197045104Y-89065228D01*
X197045104Y-89065228D02*
X196997485Y-89255704D01*
X196997485Y-89255704D02*
X196949866Y-89350942D01*
X196949866Y-89350942D02*
X196902247Y-89398561D01*
X196902247Y-89398561D02*
X196807009Y-89446180D01*
X196807009Y-89446180D02*
X196711771Y-89446180D01*
X196711771Y-89446180D02*
X196616533Y-89398561D01*
X196616533Y-89398561D02*
X196568914Y-89350942D01*
X196568914Y-89350942D02*
X196521295Y-89255704D01*
X196521295Y-89255704D02*
X196473676Y-89065228D01*
X196473676Y-89065228D02*
X196473676Y-88827133D01*
X196473676Y-88827133D02*
X196521295Y-88636657D01*
X196521295Y-88636657D02*
X196568914Y-88541419D01*
X196568914Y-88541419D02*
X196616533Y-88493800D01*
X196616533Y-88493800D02*
X196711771Y-88446180D01*
X112776095Y-96497380D02*
X112776095Y-95497380D01*
X112776095Y-95973571D02*
X113347523Y-95973571D01*
X113347523Y-96497380D02*
X113347523Y-95497380D01*
X113728476Y-95497380D02*
X114347523Y-95497380D01*
X114347523Y-95497380D02*
X114014190Y-95878333D01*
X114014190Y-95878333D02*
X114157047Y-95878333D01*
X114157047Y-95878333D02*
X114252285Y-95925952D01*
X114252285Y-95925952D02*
X114299904Y-95973571D01*
X114299904Y-95973571D02*
X114347523Y-96068809D01*
X114347523Y-96068809D02*
X114347523Y-96306904D01*
X114347523Y-96306904D02*
X114299904Y-96402142D01*
X114299904Y-96402142D02*
X114252285Y-96449761D01*
X114252285Y-96449761D02*
X114157047Y-96497380D01*
X114157047Y-96497380D02*
X113871333Y-96497380D01*
X113871333Y-96497380D02*
X113776095Y-96449761D01*
X113776095Y-96449761D02*
X113728476Y-96402142D01*
X186936142Y-96487342D02*
X186888523Y-96534961D01*
X186888523Y-96534961D02*
X186745666Y-96582580D01*
X186745666Y-96582580D02*
X186650428Y-96582580D01*
X186650428Y-96582580D02*
X186507571Y-96534961D01*
X186507571Y-96534961D02*
X186412333Y-96439723D01*
X186412333Y-96439723D02*
X186364714Y-96344485D01*
X186364714Y-96344485D02*
X186317095Y-96154009D01*
X186317095Y-96154009D02*
X186317095Y-96011152D01*
X186317095Y-96011152D02*
X186364714Y-95820676D01*
X186364714Y-95820676D02*
X186412333Y-95725438D01*
X186412333Y-95725438D02*
X186507571Y-95630200D01*
X186507571Y-95630200D02*
X186650428Y-95582580D01*
X186650428Y-95582580D02*
X186745666Y-95582580D01*
X186745666Y-95582580D02*
X186888523Y-95630200D01*
X186888523Y-95630200D02*
X186936142Y-95677819D01*
X187888523Y-96582580D02*
X187317095Y-96582580D01*
X187602809Y-96582580D02*
X187602809Y-95582580D01*
X187602809Y-95582580D02*
X187507571Y-95725438D01*
X187507571Y-95725438D02*
X187412333Y-95820676D01*
X187412333Y-95820676D02*
X187317095Y-95868295D01*
X188840904Y-96582580D02*
X188269476Y-96582580D01*
X188555190Y-96582580D02*
X188555190Y-95582580D01*
X188555190Y-95582580D02*
X188459952Y-95725438D01*
X188459952Y-95725438D02*
X188364714Y-95820676D01*
X188364714Y-95820676D02*
X188269476Y-95868295D01*
X112776095Y-45697380D02*
X112776095Y-44697380D01*
X112776095Y-45173571D02*
X113347523Y-45173571D01*
X113347523Y-45697380D02*
X113347523Y-44697380D01*
X114347523Y-45697380D02*
X113776095Y-45697380D01*
X114061809Y-45697380D02*
X114061809Y-44697380D01*
X114061809Y-44697380D02*
X113966571Y-44840238D01*
X113966571Y-44840238D02*
X113871333Y-44935476D01*
X113871333Y-44935476D02*
X113776095Y-44983095D01*
X195326095Y-45697380D02*
X195326095Y-44697380D01*
X195326095Y-45173571D02*
X195897523Y-45173571D01*
X195897523Y-45697380D02*
X195897523Y-44697380D01*
X196326095Y-44792619D02*
X196373714Y-44745000D01*
X196373714Y-44745000D02*
X196468952Y-44697380D01*
X196468952Y-44697380D02*
X196707047Y-44697380D01*
X196707047Y-44697380D02*
X196802285Y-44745000D01*
X196802285Y-44745000D02*
X196849904Y-44792619D01*
X196849904Y-44792619D02*
X196897523Y-44887857D01*
X196897523Y-44887857D02*
X196897523Y-44983095D01*
X196897523Y-44983095D02*
X196849904Y-45125952D01*
X196849904Y-45125952D02*
X196278476Y-45697380D01*
X196278476Y-45697380D02*
X196897523Y-45697380D01*
X187564733Y-101256180D02*
X187231400Y-100779990D01*
X186993305Y-101256180D02*
X186993305Y-100256180D01*
X186993305Y-100256180D02*
X187374257Y-100256180D01*
X187374257Y-100256180D02*
X187469495Y-100303800D01*
X187469495Y-100303800D02*
X187517114Y-100351419D01*
X187517114Y-100351419D02*
X187564733Y-100446657D01*
X187564733Y-100446657D02*
X187564733Y-100589514D01*
X187564733Y-100589514D02*
X187517114Y-100684752D01*
X187517114Y-100684752D02*
X187469495Y-100732371D01*
X187469495Y-100732371D02*
X187374257Y-100779990D01*
X187374257Y-100779990D02*
X186993305Y-100779990D01*
X187898067Y-100256180D02*
X188564733Y-100256180D01*
X188564733Y-100256180D02*
X188136162Y-101256180D01*
X196353180Y-80732980D02*
X196019847Y-80256790D01*
X195781752Y-80732980D02*
X195781752Y-79732980D01*
X195781752Y-79732980D02*
X196162704Y-79732980D01*
X196162704Y-79732980D02*
X196257942Y-79780600D01*
X196257942Y-79780600D02*
X196305561Y-79828219D01*
X196305561Y-79828219D02*
X196353180Y-79923457D01*
X196353180Y-79923457D02*
X196353180Y-80066314D01*
X196353180Y-80066314D02*
X196305561Y-80161552D01*
X196305561Y-80161552D02*
X196257942Y-80209171D01*
X196257942Y-80209171D02*
X196162704Y-80256790D01*
X196162704Y-80256790D02*
X195781752Y-80256790D01*
X197162704Y-80685361D02*
X197067466Y-80732980D01*
X197067466Y-80732980D02*
X196876990Y-80732980D01*
X196876990Y-80732980D02*
X196781752Y-80685361D01*
X196781752Y-80685361D02*
X196734133Y-80590123D01*
X196734133Y-80590123D02*
X196734133Y-80209171D01*
X196734133Y-80209171D02*
X196781752Y-80113933D01*
X196781752Y-80113933D02*
X196876990Y-80066314D01*
X196876990Y-80066314D02*
X197067466Y-80066314D01*
X197067466Y-80066314D02*
X197162704Y-80113933D01*
X197162704Y-80113933D02*
X197210323Y-80209171D01*
X197210323Y-80209171D02*
X197210323Y-80304409D01*
X197210323Y-80304409D02*
X196734133Y-80399647D01*
X198067466Y-80685361D02*
X197972228Y-80732980D01*
X197972228Y-80732980D02*
X197781752Y-80732980D01*
X197781752Y-80732980D02*
X197686514Y-80685361D01*
X197686514Y-80685361D02*
X197638895Y-80637742D01*
X197638895Y-80637742D02*
X197591276Y-80542504D01*
X197591276Y-80542504D02*
X197591276Y-80256790D01*
X197591276Y-80256790D02*
X197638895Y-80161552D01*
X197638895Y-80161552D02*
X197686514Y-80113933D01*
X197686514Y-80113933D02*
X197781752Y-80066314D01*
X197781752Y-80066314D02*
X197972228Y-80066314D01*
X197972228Y-80066314D02*
X198067466Y-80113933D01*
X195199048Y-72249428D02*
X195960953Y-72249428D01*
X195580000Y-72630380D02*
X195580000Y-71868476D01*
X197739048Y-72249428D02*
X198500953Y-72249428D01*
X137272733Y-96160742D02*
X137225114Y-96208361D01*
X137225114Y-96208361D02*
X137082257Y-96255980D01*
X137082257Y-96255980D02*
X136987019Y-96255980D01*
X136987019Y-96255980D02*
X136844162Y-96208361D01*
X136844162Y-96208361D02*
X136748924Y-96113123D01*
X136748924Y-96113123D02*
X136701305Y-96017885D01*
X136701305Y-96017885D02*
X136653686Y-95827409D01*
X136653686Y-95827409D02*
X136653686Y-95684552D01*
X136653686Y-95684552D02*
X136701305Y-95494076D01*
X136701305Y-95494076D02*
X136748924Y-95398838D01*
X136748924Y-95398838D02*
X136844162Y-95303600D01*
X136844162Y-95303600D02*
X136987019Y-95255980D01*
X136987019Y-95255980D02*
X137082257Y-95255980D01*
X137082257Y-95255980D02*
X137225114Y-95303600D01*
X137225114Y-95303600D02*
X137272733Y-95351219D01*
X137844162Y-95684552D02*
X137748924Y-95636933D01*
X137748924Y-95636933D02*
X137701305Y-95589314D01*
X137701305Y-95589314D02*
X137653686Y-95494076D01*
X137653686Y-95494076D02*
X137653686Y-95446457D01*
X137653686Y-95446457D02*
X137701305Y-95351219D01*
X137701305Y-95351219D02*
X137748924Y-95303600D01*
X137748924Y-95303600D02*
X137844162Y-95255980D01*
X137844162Y-95255980D02*
X138034638Y-95255980D01*
X138034638Y-95255980D02*
X138129876Y-95303600D01*
X138129876Y-95303600D02*
X138177495Y-95351219D01*
X138177495Y-95351219D02*
X138225114Y-95446457D01*
X138225114Y-95446457D02*
X138225114Y-95494076D01*
X138225114Y-95494076D02*
X138177495Y-95589314D01*
X138177495Y-95589314D02*
X138129876Y-95636933D01*
X138129876Y-95636933D02*
X138034638Y-95684552D01*
X138034638Y-95684552D02*
X137844162Y-95684552D01*
X137844162Y-95684552D02*
X137748924Y-95732171D01*
X137748924Y-95732171D02*
X137701305Y-95779790D01*
X137701305Y-95779790D02*
X137653686Y-95875028D01*
X137653686Y-95875028D02*
X137653686Y-96065504D01*
X137653686Y-96065504D02*
X137701305Y-96160742D01*
X137701305Y-96160742D02*
X137748924Y-96208361D01*
X137748924Y-96208361D02*
X137844162Y-96255980D01*
X137844162Y-96255980D02*
X138034638Y-96255980D01*
X138034638Y-96255980D02*
X138129876Y-96208361D01*
X138129876Y-96208361D02*
X138177495Y-96160742D01*
X138177495Y-96160742D02*
X138225114Y-96065504D01*
X138225114Y-96065504D02*
X138225114Y-95875028D01*
X138225114Y-95875028D02*
X138177495Y-95779790D01*
X138177495Y-95779790D02*
X138129876Y-95732171D01*
X138129876Y-95732171D02*
X138034638Y-95684552D01*
X172299333Y-101484780D02*
X171966000Y-101008590D01*
X171727905Y-101484780D02*
X171727905Y-100484780D01*
X171727905Y-100484780D02*
X172108857Y-100484780D01*
X172108857Y-100484780D02*
X172204095Y-100532400D01*
X172204095Y-100532400D02*
X172251714Y-100580019D01*
X172251714Y-100580019D02*
X172299333Y-100675257D01*
X172299333Y-100675257D02*
X172299333Y-100818114D01*
X172299333Y-100818114D02*
X172251714Y-100913352D01*
X172251714Y-100913352D02*
X172204095Y-100960971D01*
X172204095Y-100960971D02*
X172108857Y-101008590D01*
X172108857Y-101008590D02*
X171727905Y-101008590D01*
X173156476Y-100484780D02*
X172966000Y-100484780D01*
X172966000Y-100484780D02*
X172870762Y-100532400D01*
X172870762Y-100532400D02*
X172823143Y-100580019D01*
X172823143Y-100580019D02*
X172727905Y-100722876D01*
X172727905Y-100722876D02*
X172680286Y-100913352D01*
X172680286Y-100913352D02*
X172680286Y-101294304D01*
X172680286Y-101294304D02*
X172727905Y-101389542D01*
X172727905Y-101389542D02*
X172775524Y-101437161D01*
X172775524Y-101437161D02*
X172870762Y-101484780D01*
X172870762Y-101484780D02*
X173061238Y-101484780D01*
X173061238Y-101484780D02*
X173156476Y-101437161D01*
X173156476Y-101437161D02*
X173204095Y-101389542D01*
X173204095Y-101389542D02*
X173251714Y-101294304D01*
X173251714Y-101294304D02*
X173251714Y-101056209D01*
X173251714Y-101056209D02*
X173204095Y-100960971D01*
X173204095Y-100960971D02*
X173156476Y-100913352D01*
X173156476Y-100913352D02*
X173061238Y-100865733D01*
X173061238Y-100865733D02*
X172870762Y-100865733D01*
X172870762Y-100865733D02*
X172775524Y-100913352D01*
X172775524Y-100913352D02*
X172727905Y-100960971D01*
X172727905Y-100960971D02*
X172680286Y-101056209D01*
X178617762Y-101916580D02*
X178617762Y-100916580D01*
X178617762Y-100916580D02*
X179189190Y-101916580D01*
X179189190Y-101916580D02*
X179189190Y-100916580D01*
X179665381Y-101392771D02*
X179998714Y-101392771D01*
X180141571Y-101916580D02*
X179665381Y-101916580D01*
X179665381Y-101916580D02*
X179665381Y-100916580D01*
X179665381Y-100916580D02*
X180141571Y-100916580D01*
X180474905Y-100916580D02*
X181141571Y-101916580D01*
X181141571Y-100916580D02*
X180474905Y-101916580D01*
X181379667Y-100916580D02*
X181951095Y-100916580D01*
X181665381Y-101916580D02*
X181665381Y-100916580D01*
X144907095Y-84076380D02*
X144907095Y-84885904D01*
X144907095Y-84885904D02*
X144954714Y-84981142D01*
X144954714Y-84981142D02*
X145002333Y-85028761D01*
X145002333Y-85028761D02*
X145097571Y-85076380D01*
X145097571Y-85076380D02*
X145288047Y-85076380D01*
X145288047Y-85076380D02*
X145383285Y-85028761D01*
X145383285Y-85028761D02*
X145430904Y-84981142D01*
X145430904Y-84981142D02*
X145478523Y-84885904D01*
X145478523Y-84885904D02*
X145478523Y-84076380D01*
X146430904Y-84076380D02*
X145954714Y-84076380D01*
X145954714Y-84076380D02*
X145907095Y-84552571D01*
X145907095Y-84552571D02*
X145954714Y-84504952D01*
X145954714Y-84504952D02*
X146049952Y-84457333D01*
X146049952Y-84457333D02*
X146288047Y-84457333D01*
X146288047Y-84457333D02*
X146383285Y-84504952D01*
X146383285Y-84504952D02*
X146430904Y-84552571D01*
X146430904Y-84552571D02*
X146478523Y-84647809D01*
X146478523Y-84647809D02*
X146478523Y-84885904D01*
X146478523Y-84885904D02*
X146430904Y-84981142D01*
X146430904Y-84981142D02*
X146383285Y-85028761D01*
X146383285Y-85028761D02*
X146288047Y-85076380D01*
X146288047Y-85076380D02*
X146049952Y-85076380D01*
X146049952Y-85076380D02*
X145954714Y-85028761D01*
X145954714Y-85028761D02*
X145907095Y-84981142D01*
X127897143Y-102043580D02*
X127897143Y-101043580D01*
X127897143Y-101043580D02*
X128278095Y-101043580D01*
X128278095Y-101043580D02*
X128373333Y-101091200D01*
X128373333Y-101091200D02*
X128420952Y-101138819D01*
X128420952Y-101138819D02*
X128468571Y-101234057D01*
X128468571Y-101234057D02*
X128468571Y-101376914D01*
X128468571Y-101376914D02*
X128420952Y-101472152D01*
X128420952Y-101472152D02*
X128373333Y-101519771D01*
X128373333Y-101519771D02*
X128278095Y-101567390D01*
X128278095Y-101567390D02*
X127897143Y-101567390D01*
X129468571Y-102043580D02*
X129135238Y-101567390D01*
X128897143Y-102043580D02*
X128897143Y-101043580D01*
X128897143Y-101043580D02*
X129278095Y-101043580D01*
X129278095Y-101043580D02*
X129373333Y-101091200D01*
X129373333Y-101091200D02*
X129420952Y-101138819D01*
X129420952Y-101138819D02*
X129468571Y-101234057D01*
X129468571Y-101234057D02*
X129468571Y-101376914D01*
X129468571Y-101376914D02*
X129420952Y-101472152D01*
X129420952Y-101472152D02*
X129373333Y-101519771D01*
X129373333Y-101519771D02*
X129278095Y-101567390D01*
X129278095Y-101567390D02*
X128897143Y-101567390D01*
X129897143Y-101519771D02*
X130230476Y-101519771D01*
X130373333Y-102043580D02*
X129897143Y-102043580D01*
X129897143Y-102043580D02*
X129897143Y-101043580D01*
X129897143Y-101043580D02*
X130373333Y-101043580D01*
X130659048Y-101043580D02*
X130992381Y-102043580D01*
X130992381Y-102043580D02*
X131325714Y-101043580D01*
X143446666Y-101621371D02*
X143113333Y-101621371D01*
X143113333Y-102145180D02*
X143113333Y-101145180D01*
X143113333Y-101145180D02*
X143589523Y-101145180D01*
X144541904Y-102145180D02*
X144208571Y-101668990D01*
X143970476Y-102145180D02*
X143970476Y-101145180D01*
X143970476Y-101145180D02*
X144351428Y-101145180D01*
X144351428Y-101145180D02*
X144446666Y-101192800D01*
X144446666Y-101192800D02*
X144494285Y-101240419D01*
X144494285Y-101240419D02*
X144541904Y-101335657D01*
X144541904Y-101335657D02*
X144541904Y-101478514D01*
X144541904Y-101478514D02*
X144494285Y-101573752D01*
X144494285Y-101573752D02*
X144446666Y-101621371D01*
X144446666Y-101621371D02*
X144351428Y-101668990D01*
X144351428Y-101668990D02*
X143970476Y-101668990D01*
X144970476Y-101621371D02*
X145303809Y-101621371D01*
X145446666Y-102145180D02*
X144970476Y-102145180D01*
X144970476Y-102145180D02*
X144970476Y-101145180D01*
X144970476Y-101145180D02*
X145446666Y-101145180D01*
X146541904Y-102240419D02*
X146446666Y-102192800D01*
X146446666Y-102192800D02*
X146351428Y-102097561D01*
X146351428Y-102097561D02*
X146208571Y-101954704D01*
X146208571Y-101954704D02*
X146113333Y-101907085D01*
X146113333Y-101907085D02*
X146018095Y-101907085D01*
X146065714Y-102145180D02*
X145970476Y-102097561D01*
X145970476Y-102097561D02*
X145875238Y-102002323D01*
X145875238Y-102002323D02*
X145827619Y-101811847D01*
X145827619Y-101811847D02*
X145827619Y-101478514D01*
X145827619Y-101478514D02*
X145875238Y-101288038D01*
X145875238Y-101288038D02*
X145970476Y-101192800D01*
X145970476Y-101192800D02*
X146065714Y-101145180D01*
X146065714Y-101145180D02*
X146256190Y-101145180D01*
X146256190Y-101145180D02*
X146351428Y-101192800D01*
X146351428Y-101192800D02*
X146446666Y-101288038D01*
X146446666Y-101288038D02*
X146494285Y-101478514D01*
X146494285Y-101478514D02*
X146494285Y-101811847D01*
X146494285Y-101811847D02*
X146446666Y-102002323D01*
X146446666Y-102002323D02*
X146351428Y-102097561D01*
X146351428Y-102097561D02*
X146256190Y-102145180D01*
X146256190Y-102145180D02*
X146065714Y-102145180D01*
X171746942Y-96639742D02*
X171699323Y-96687361D01*
X171699323Y-96687361D02*
X171556466Y-96734980D01*
X171556466Y-96734980D02*
X171461228Y-96734980D01*
X171461228Y-96734980D02*
X171318371Y-96687361D01*
X171318371Y-96687361D02*
X171223133Y-96592123D01*
X171223133Y-96592123D02*
X171175514Y-96496885D01*
X171175514Y-96496885D02*
X171127895Y-96306409D01*
X171127895Y-96306409D02*
X171127895Y-96163552D01*
X171127895Y-96163552D02*
X171175514Y-95973076D01*
X171175514Y-95973076D02*
X171223133Y-95877838D01*
X171223133Y-95877838D02*
X171318371Y-95782600D01*
X171318371Y-95782600D02*
X171461228Y-95734980D01*
X171461228Y-95734980D02*
X171556466Y-95734980D01*
X171556466Y-95734980D02*
X171699323Y-95782600D01*
X171699323Y-95782600D02*
X171746942Y-95830219D01*
X172699323Y-96734980D02*
X172127895Y-96734980D01*
X172413609Y-96734980D02*
X172413609Y-95734980D01*
X172413609Y-95734980D02*
X172318371Y-95877838D01*
X172318371Y-95877838D02*
X172223133Y-95973076D01*
X172223133Y-95973076D02*
X172127895Y-96020695D01*
X173318371Y-95734980D02*
X173413609Y-95734980D01*
X173413609Y-95734980D02*
X173508847Y-95782600D01*
X173508847Y-95782600D02*
X173556466Y-95830219D01*
X173556466Y-95830219D02*
X173604085Y-95925457D01*
X173604085Y-95925457D02*
X173651704Y-96115933D01*
X173651704Y-96115933D02*
X173651704Y-96354028D01*
X173651704Y-96354028D02*
X173604085Y-96544504D01*
X173604085Y-96544504D02*
X173556466Y-96639742D01*
X173556466Y-96639742D02*
X173508847Y-96687361D01*
X173508847Y-96687361D02*
X173413609Y-96734980D01*
X173413609Y-96734980D02*
X173318371Y-96734980D01*
X173318371Y-96734980D02*
X173223133Y-96687361D01*
X173223133Y-96687361D02*
X173175514Y-96639742D01*
X173175514Y-96639742D02*
X173127895Y-96544504D01*
X173127895Y-96544504D02*
X173080276Y-96354028D01*
X173080276Y-96354028D02*
X173080276Y-96115933D01*
X173080276Y-96115933D02*
X173127895Y-95925457D01*
X173127895Y-95925457D02*
X173175514Y-95830219D01*
X173175514Y-95830219D02*
X173223133Y-95782600D01*
X173223133Y-95782600D02*
X173318371Y-95734980D01*
X137196533Y-100849780D02*
X136863200Y-100373590D01*
X136625105Y-100849780D02*
X136625105Y-99849780D01*
X136625105Y-99849780D02*
X137006057Y-99849780D01*
X137006057Y-99849780D02*
X137101295Y-99897400D01*
X137101295Y-99897400D02*
X137148914Y-99945019D01*
X137148914Y-99945019D02*
X137196533Y-100040257D01*
X137196533Y-100040257D02*
X137196533Y-100183114D01*
X137196533Y-100183114D02*
X137148914Y-100278352D01*
X137148914Y-100278352D02*
X137101295Y-100325971D01*
X137101295Y-100325971D02*
X137006057Y-100373590D01*
X137006057Y-100373590D02*
X136625105Y-100373590D01*
X137577486Y-99945019D02*
X137625105Y-99897400D01*
X137625105Y-99897400D02*
X137720343Y-99849780D01*
X137720343Y-99849780D02*
X137958438Y-99849780D01*
X137958438Y-99849780D02*
X138053676Y-99897400D01*
X138053676Y-99897400D02*
X138101295Y-99945019D01*
X138101295Y-99945019D02*
X138148914Y-100040257D01*
X138148914Y-100040257D02*
X138148914Y-100135495D01*
X138148914Y-100135495D02*
X138101295Y-100278352D01*
X138101295Y-100278352D02*
X137529867Y-100849780D01*
X137529867Y-100849780D02*
X138148914Y-100849780D01*
X122058133Y-101230780D02*
X121724800Y-100754590D01*
X121486705Y-101230780D02*
X121486705Y-100230780D01*
X121486705Y-100230780D02*
X121867657Y-100230780D01*
X121867657Y-100230780D02*
X121962895Y-100278400D01*
X121962895Y-100278400D02*
X122010514Y-100326019D01*
X122010514Y-100326019D02*
X122058133Y-100421257D01*
X122058133Y-100421257D02*
X122058133Y-100564114D01*
X122058133Y-100564114D02*
X122010514Y-100659352D01*
X122010514Y-100659352D02*
X121962895Y-100706971D01*
X121962895Y-100706971D02*
X121867657Y-100754590D01*
X121867657Y-100754590D02*
X121486705Y-100754590D01*
X122391467Y-100230780D02*
X123010514Y-100230780D01*
X123010514Y-100230780D02*
X122677181Y-100611733D01*
X122677181Y-100611733D02*
X122820038Y-100611733D01*
X122820038Y-100611733D02*
X122915276Y-100659352D01*
X122915276Y-100659352D02*
X122962895Y-100706971D01*
X122962895Y-100706971D02*
X123010514Y-100802209D01*
X123010514Y-100802209D02*
X123010514Y-101040304D01*
X123010514Y-101040304D02*
X122962895Y-101135542D01*
X122962895Y-101135542D02*
X122915276Y-101183161D01*
X122915276Y-101183161D02*
X122820038Y-101230780D01*
X122820038Y-101230780D02*
X122534324Y-101230780D01*
X122534324Y-101230780D02*
X122439086Y-101183161D01*
X122439086Y-101183161D02*
X122391467Y-101135542D01*
X195807105Y-84958180D02*
X195807105Y-83958180D01*
X195807105Y-83958180D02*
X196045200Y-83958180D01*
X196045200Y-83958180D02*
X196188057Y-84005800D01*
X196188057Y-84005800D02*
X196283295Y-84101038D01*
X196283295Y-84101038D02*
X196330914Y-84196276D01*
X196330914Y-84196276D02*
X196378533Y-84386752D01*
X196378533Y-84386752D02*
X196378533Y-84529609D01*
X196378533Y-84529609D02*
X196330914Y-84720085D01*
X196330914Y-84720085D02*
X196283295Y-84815323D01*
X196283295Y-84815323D02*
X196188057Y-84910561D01*
X196188057Y-84910561D02*
X196045200Y-84958180D01*
X196045200Y-84958180D02*
X195807105Y-84958180D01*
X197330914Y-84958180D02*
X196759486Y-84958180D01*
X197045200Y-84958180D02*
X197045200Y-83958180D01*
X197045200Y-83958180D02*
X196949962Y-84101038D01*
X196949962Y-84101038D02*
X196854724Y-84196276D01*
X196854724Y-84196276D02*
X196759486Y-84243895D01*
X195326095Y-96497380D02*
X195326095Y-95497380D01*
X195326095Y-95973571D02*
X195897523Y-95973571D01*
X195897523Y-96497380D02*
X195897523Y-95497380D01*
X196802285Y-95830714D02*
X196802285Y-96497380D01*
X196564190Y-95449761D02*
X196326095Y-96164047D01*
X196326095Y-96164047D02*
X196945142Y-96164047D01*
X194945238Y-69487380D02*
X195516666Y-69487380D01*
X195230952Y-70487380D02*
X195230952Y-69487380D01*
X195850000Y-70487380D02*
X195850000Y-69820714D01*
X195850000Y-70011190D02*
X195897619Y-69915952D01*
X195897619Y-69915952D02*
X195945238Y-69868333D01*
X195945238Y-69868333D02*
X196040476Y-69820714D01*
X196040476Y-69820714D02*
X196135714Y-69820714D01*
X196897619Y-70487380D02*
X196897619Y-69963571D01*
X196897619Y-69963571D02*
X196850000Y-69868333D01*
X196850000Y-69868333D02*
X196754762Y-69820714D01*
X196754762Y-69820714D02*
X196564286Y-69820714D01*
X196564286Y-69820714D02*
X196469048Y-69868333D01*
X196897619Y-70439761D02*
X196802381Y-70487380D01*
X196802381Y-70487380D02*
X196564286Y-70487380D01*
X196564286Y-70487380D02*
X196469048Y-70439761D01*
X196469048Y-70439761D02*
X196421429Y-70344523D01*
X196421429Y-70344523D02*
X196421429Y-70249285D01*
X196421429Y-70249285D02*
X196469048Y-70154047D01*
X196469048Y-70154047D02*
X196564286Y-70106428D01*
X196564286Y-70106428D02*
X196802381Y-70106428D01*
X196802381Y-70106428D02*
X196897619Y-70058809D01*
X197373810Y-69820714D02*
X197373810Y-70487380D01*
X197373810Y-69915952D02*
X197421429Y-69868333D01*
X197421429Y-69868333D02*
X197516667Y-69820714D01*
X197516667Y-69820714D02*
X197659524Y-69820714D01*
X197659524Y-69820714D02*
X197754762Y-69868333D01*
X197754762Y-69868333D02*
X197802381Y-69963571D01*
X197802381Y-69963571D02*
X197802381Y-70487380D01*
X198230953Y-70439761D02*
X198326191Y-70487380D01*
X198326191Y-70487380D02*
X198516667Y-70487380D01*
X198516667Y-70487380D02*
X198611905Y-70439761D01*
X198611905Y-70439761D02*
X198659524Y-70344523D01*
X198659524Y-70344523D02*
X198659524Y-70296904D01*
X198659524Y-70296904D02*
X198611905Y-70201666D01*
X198611905Y-70201666D02*
X198516667Y-70154047D01*
X198516667Y-70154047D02*
X198373810Y-70154047D01*
X198373810Y-70154047D02*
X198278572Y-70106428D01*
X198278572Y-70106428D02*
X198230953Y-70011190D01*
X198230953Y-70011190D02*
X198230953Y-69963571D01*
X198230953Y-69963571D02*
X198278572Y-69868333D01*
X198278572Y-69868333D02*
X198373810Y-69820714D01*
X198373810Y-69820714D02*
X198516667Y-69820714D01*
X198516667Y-69820714D02*
X198611905Y-69868333D01*
X195199048Y-62165628D02*
X195960953Y-62165628D01*
X195580000Y-62546580D02*
X195580000Y-61784676D01*
X197739048Y-62191028D02*
X198500953Y-62191028D01*
X122032733Y-96135342D02*
X121985114Y-96182961D01*
X121985114Y-96182961D02*
X121842257Y-96230580D01*
X121842257Y-96230580D02*
X121747019Y-96230580D01*
X121747019Y-96230580D02*
X121604162Y-96182961D01*
X121604162Y-96182961D02*
X121508924Y-96087723D01*
X121508924Y-96087723D02*
X121461305Y-95992485D01*
X121461305Y-95992485D02*
X121413686Y-95802009D01*
X121413686Y-95802009D02*
X121413686Y-95659152D01*
X121413686Y-95659152D02*
X121461305Y-95468676D01*
X121461305Y-95468676D02*
X121508924Y-95373438D01*
X121508924Y-95373438D02*
X121604162Y-95278200D01*
X121604162Y-95278200D02*
X121747019Y-95230580D01*
X121747019Y-95230580D02*
X121842257Y-95230580D01*
X121842257Y-95230580D02*
X121985114Y-95278200D01*
X121985114Y-95278200D02*
X122032733Y-95325819D01*
X122508924Y-96230580D02*
X122699400Y-96230580D01*
X122699400Y-96230580D02*
X122794638Y-96182961D01*
X122794638Y-96182961D02*
X122842257Y-96135342D01*
X122842257Y-96135342D02*
X122937495Y-95992485D01*
X122937495Y-95992485D02*
X122985114Y-95802009D01*
X122985114Y-95802009D02*
X122985114Y-95421057D01*
X122985114Y-95421057D02*
X122937495Y-95325819D01*
X122937495Y-95325819D02*
X122889876Y-95278200D01*
X122889876Y-95278200D02*
X122794638Y-95230580D01*
X122794638Y-95230580D02*
X122604162Y-95230580D01*
X122604162Y-95230580D02*
X122508924Y-95278200D01*
X122508924Y-95278200D02*
X122461305Y-95325819D01*
X122461305Y-95325819D02*
X122413686Y-95421057D01*
X122413686Y-95421057D02*
X122413686Y-95659152D01*
X122413686Y-95659152D02*
X122461305Y-95754390D01*
X122461305Y-95754390D02*
X122508924Y-95802009D01*
X122508924Y-95802009D02*
X122604162Y-95849628D01*
X122604162Y-95849628D02*
X122794638Y-95849628D01*
X122794638Y-95849628D02*
X122889876Y-95802009D01*
X122889876Y-95802009D02*
X122937495Y-95754390D01*
X122937495Y-95754390D02*
X122985114Y-95659152D01*
X163550790Y-102043580D02*
X163550790Y-101043580D01*
X163550790Y-101043580D02*
X163931742Y-101043580D01*
X163931742Y-101043580D02*
X164026980Y-101091200D01*
X164026980Y-101091200D02*
X164074599Y-101138819D01*
X164074599Y-101138819D02*
X164122218Y-101234057D01*
X164122218Y-101234057D02*
X164122218Y-101376914D01*
X164122218Y-101376914D02*
X164074599Y-101472152D01*
X164074599Y-101472152D02*
X164026980Y-101519771D01*
X164026980Y-101519771D02*
X163931742Y-101567390D01*
X163931742Y-101567390D02*
X163550790Y-101567390D01*
X165026980Y-102043580D02*
X164550790Y-102043580D01*
X164550790Y-102043580D02*
X164550790Y-101043580D01*
X165312695Y-101757866D02*
X165788885Y-101757866D01*
X165217457Y-102043580D02*
X165550790Y-101043580D01*
X165550790Y-101043580D02*
X165884123Y-102043580D01*
X166407933Y-101567390D02*
X166407933Y-102043580D01*
X166074600Y-101043580D02*
X166407933Y-101567390D01*
X166407933Y-101567390D02*
X166741266Y-101043580D01*
D11*
X195556136Y-89993800D02*
X196010264Y-89993800D01*
X195556136Y-91463800D02*
X196010264Y-91463800D01*
X187368548Y-93422800D02*
X187891052Y-93422800D01*
X187368548Y-94892800D02*
X187891052Y-94892800D01*
X187933064Y-99566400D02*
X187478936Y-99566400D01*
X187933064Y-98096400D02*
X187478936Y-98096400D01*
X193910000Y-74200000D02*
X193910000Y-78200000D01*
X194200000Y-73170000D02*
X194200000Y-79190000D01*
X194200000Y-79190000D02*
X199500000Y-79190000D01*
X194780000Y-73170000D02*
X194780000Y-73770000D01*
X194780000Y-73770000D02*
X196380000Y-73770000D01*
X195580000Y-78190000D02*
X195830000Y-77660000D01*
X195580000Y-78190000D02*
X198120000Y-78190000D01*
X195580000Y-79190000D02*
X195580000Y-78190000D01*
X195830000Y-77660000D02*
X197870000Y-77660000D01*
X195830000Y-79190000D02*
X195830000Y-78190000D01*
X196380000Y-73770000D02*
X196380000Y-73170000D01*
X197320000Y-73170000D02*
X197320000Y-73770000D01*
X197320000Y-73770000D02*
X198920000Y-73770000D01*
X197870000Y-77660000D02*
X198120000Y-78190000D01*
X197870000Y-79190000D02*
X197870000Y-78190000D01*
X198120000Y-78190000D02*
X198120000Y-79190000D01*
X198920000Y-73770000D02*
X198920000Y-73170000D01*
X199500000Y-73170000D02*
X194200000Y-73170000D01*
X199500000Y-79190000D02*
X199500000Y-73170000D01*
X137700652Y-94943600D02*
X137178148Y-94943600D01*
X137700652Y-93473600D02*
X137178148Y-93473600D01*
X172642264Y-99591800D02*
X172188136Y-99591800D01*
X172642264Y-98121800D02*
X172188136Y-98121800D01*
X185440000Y-99820000D02*
X184440000Y-99820000D01*
X185440000Y-98820000D02*
X185440000Y-99820000D01*
X183440000Y-97820000D02*
X183440000Y-95220000D01*
X177440000Y-99770000D02*
X183240000Y-99770000D01*
X177340000Y-93270000D02*
X183340000Y-93270000D01*
X177240000Y-97820000D02*
X177240000Y-95220000D01*
X114890000Y-60880000D02*
X114890000Y-76480000D01*
X114890000Y-76480000D02*
X118990000Y-77880000D01*
X118990000Y-58130000D02*
X118990000Y-59380000D01*
X118990000Y-59380000D02*
X114890000Y-60880000D01*
X118990000Y-77880000D02*
X118990000Y-85530000D01*
X118990000Y-85530000D02*
X120040000Y-85530000D01*
X120040000Y-55280000D02*
X120040000Y-58130000D01*
X120040000Y-58130000D02*
X118990000Y-58130000D01*
X120040000Y-85530000D02*
X120040000Y-88380000D01*
X124840000Y-58130000D02*
X124840000Y-55280000D01*
X124840000Y-85530000D02*
X185040000Y-85530000D01*
X124840000Y-88380000D02*
X124840000Y-85530000D01*
X161140000Y-87380000D02*
X161940000Y-85980000D01*
X161140000Y-87380000D02*
X162740000Y-87380000D01*
X161940000Y-85980000D02*
X162740000Y-87380000D01*
X185040000Y-55280000D02*
X185040000Y-58130000D01*
X185040000Y-58130000D02*
X124840000Y-58130000D01*
X185040000Y-85530000D02*
X185040000Y-88380000D01*
X189840000Y-58130000D02*
X189840000Y-55280000D01*
X189840000Y-85530000D02*
X190890000Y-85530000D01*
X189840000Y-88380000D02*
X189840000Y-85530000D01*
X190890000Y-58130000D02*
X189840000Y-58130000D01*
X190890000Y-85530000D02*
X190890000Y-58130000D01*
X124840000Y-55280000D02*
G75*
G03*
X120040000Y-55280000I-2400000J0D01*
G01*
X120040000Y-88380000D02*
G75*
G03*
X124840000Y-88380000I2400000J0D01*
G01*
X189840000Y-55280000D02*
G75*
G03*
X185040000Y-55280000I-2400000J0D01*
G01*
X185040000Y-88380000D02*
G75*
G03*
X189840000Y-88380000I2400000J0D01*
G01*
X134640000Y-99820000D02*
X133640000Y-99820000D01*
X134640000Y-98820000D02*
X134640000Y-99820000D01*
X132640000Y-97820000D02*
X132640000Y-95220000D01*
X126640000Y-99770000D02*
X132440000Y-99770000D01*
X126540000Y-93270000D02*
X132540000Y-93270000D01*
X126440000Y-97820000D02*
X126440000Y-95220000D01*
X149880000Y-99820000D02*
X148880000Y-99820000D01*
X149880000Y-98820000D02*
X149880000Y-99820000D01*
X147880000Y-97820000D02*
X147880000Y-95220000D01*
X141880000Y-99770000D02*
X147680000Y-99770000D01*
X141780000Y-93270000D02*
X147780000Y-93270000D01*
X141680000Y-97820000D02*
X141680000Y-95220000D01*
X172204748Y-93524400D02*
X172727252Y-93524400D01*
X172204748Y-94994400D02*
X172727252Y-94994400D01*
X137161536Y-98045600D02*
X137615664Y-98045600D01*
X137161536Y-99515600D02*
X137615664Y-99515600D01*
X122023136Y-98096400D02*
X122477264Y-98096400D01*
X122023136Y-99566400D02*
X122477264Y-99566400D01*
X192513000Y-55480200D02*
X192513000Y-59480200D01*
X192803000Y-54450200D02*
X192803000Y-60470200D01*
X192803000Y-60470200D02*
X200643000Y-60470200D01*
X193383000Y-54450200D02*
X193383000Y-55050200D01*
X193383000Y-55050200D02*
X194983000Y-55050200D01*
X194183000Y-59470200D02*
X194433000Y-58940200D01*
X194183000Y-59470200D02*
X199263000Y-59470200D01*
X194183000Y-60470200D02*
X194183000Y-59470200D01*
X194433000Y-58940200D02*
X199013000Y-58940200D01*
X194433000Y-60470200D02*
X194433000Y-59470200D01*
X194983000Y-55050200D02*
X194983000Y-54450200D01*
X195923000Y-54450200D02*
X195923000Y-55050200D01*
X195923000Y-55050200D02*
X197523000Y-55050200D01*
X197523000Y-55050200D02*
X197523000Y-54450200D01*
X198463000Y-54450200D02*
X198463000Y-55050200D01*
X198463000Y-55050200D02*
X200063000Y-55050200D01*
X199013000Y-58940200D02*
X199263000Y-59470200D01*
X199013000Y-60470200D02*
X199013000Y-59470200D01*
X199263000Y-59470200D02*
X199263000Y-60470200D01*
X200063000Y-55050200D02*
X200063000Y-54450200D01*
X200643000Y-54450200D02*
X192803000Y-54450200D01*
X200643000Y-60470200D02*
X200643000Y-54450200D01*
X194085200Y-85275800D02*
X194085200Y-87545800D01*
X194085200Y-87545800D02*
X198145200Y-87545800D01*
X198145200Y-85275800D02*
X194085200Y-85275800D01*
X193910000Y-64040000D02*
X193910000Y-68040000D01*
X194200000Y-63010000D02*
X194200000Y-69030000D01*
X194200000Y-69030000D02*
X199500000Y-69030000D01*
X194780000Y-63010000D02*
X194780000Y-63610000D01*
X194780000Y-63610000D02*
X196380000Y-63610000D01*
X195580000Y-68030000D02*
X195830000Y-67500000D01*
X195580000Y-68030000D02*
X198120000Y-68030000D01*
X195580000Y-69030000D02*
X195580000Y-68030000D01*
X195830000Y-67500000D02*
X197870000Y-67500000D01*
X195830000Y-69030000D02*
X195830000Y-68030000D01*
X196380000Y-63610000D02*
X196380000Y-63010000D01*
X197320000Y-63010000D02*
X197320000Y-63610000D01*
X197320000Y-63610000D02*
X198920000Y-63610000D01*
X197870000Y-67500000D02*
X198120000Y-68030000D01*
X197870000Y-69030000D02*
X197870000Y-68030000D01*
X198120000Y-68030000D02*
X198120000Y-69030000D01*
X198920000Y-63610000D02*
X198920000Y-63010000D01*
X199500000Y-63010000D02*
X194200000Y-63010000D01*
X199500000Y-69030000D02*
X199500000Y-63010000D01*
X122460652Y-94918200D02*
X121938148Y-94918200D01*
X122460652Y-93448200D02*
X121938148Y-93448200D01*
X170200000Y-99820000D02*
X169200000Y-99820000D01*
X170200000Y-98820000D02*
X170200000Y-99820000D01*
X168200000Y-97820000D02*
X168200000Y-95220000D01*
X162200000Y-99770000D02*
X168000000Y-99770000D01*
X162100000Y-93270000D02*
X168100000Y-93270000D01*
X162000000Y-97820000D02*
X162000000Y-95220000D01*
M02*
