G04 #@! TF.GenerationSoftware,KiCad,Pcbnew,(7.0.0)*
G04 #@! TF.CreationDate,2023-03-05T21:40:28-06:00*
G04 #@! TF.ProjectId,Phone_Audio_FM_Transmitter,50686f6e-655f-4417-9564-696f5f464d5f,1*
G04 #@! TF.SameCoordinates,Original*
G04 #@! TF.FileFunction,Paste,Bot*
G04 #@! TF.FilePolarity,Positive*
%FSLAX46Y46*%
G04 Gerber Fmt 4.6, Leading zero omitted, Abs format (unit mm)*
G04 Created by KiCad (PCBNEW (7.0.0)) date 2023-03-05 21:40:28*
%MOMM*%
%LPD*%
G01*
G04 APERTURE LIST*
G04 Aperture macros list*
%AMRoundRect*
0 Rectangle with rounded corners*
0 $1 Rounding radius*
0 $2 $3 $4 $5 $6 $7 $8 $9 X,Y pos of 4 corners*
0 Add a 4 corners polygon primitive as box body*
4,1,4,$2,$3,$4,$5,$6,$7,$8,$9,$2,$3,0*
0 Add four circle primitives for the rounded corners*
1,1,$1+$1,$2,$3*
1,1,$1+$1,$4,$5*
1,1,$1+$1,$6,$7*
1,1,$1+$1,$8,$9*
0 Add four rect primitives between the rounded corners*
20,1,$1+$1,$2,$3,$4,$5,0*
20,1,$1+$1,$4,$5,$6,$7,0*
20,1,$1+$1,$6,$7,$8,$9,0*
20,1,$1+$1,$8,$9,$2,$3,0*%
%AMFreePoly0*
4,1,25,3.555000,-1.595000,1.645000,-1.595000,1.500000,-1.420000,1.360000,-1.280000,1.205000,-1.155000,1.035000,-1.045000,0.860000,-0.950000,0.675000,-0.875000,0.480000,-0.820000,0.280000,-0.780000,0.085000,-0.765000,-0.085000,-0.765000,-0.280000,-0.780000,-0.480000,-0.820000,-0.675000,-0.875000,-0.860000,-0.950000,-1.035000,-1.045000,-1.205000,-1.155000,-1.360000,-1.280000,-1.500000,-1.420000,
-1.645000,-1.595000,-3.555000,-1.595000,-3.555000,0.755000,3.555000,0.755000,3.555000,-1.595000,3.555000,-1.595000,$1*%
G04 Aperture macros list end*
%ADD10RoundRect,0.250000X-0.475000X0.337500X-0.475000X-0.337500X0.475000X-0.337500X0.475000X0.337500X0*%
%ADD11RoundRect,0.250000X-0.337500X-0.475000X0.337500X-0.475000X0.337500X0.475000X-0.337500X0.475000X0*%
%ADD12RoundRect,0.250000X0.337500X0.475000X-0.337500X0.475000X-0.337500X-0.475000X0.337500X-0.475000X0*%
%ADD13RoundRect,0.250000X-0.450000X0.350000X-0.450000X-0.350000X0.450000X-0.350000X0.450000X0.350000X0*%
%ADD14RoundRect,0.250000X0.325000X0.450000X-0.325000X0.450000X-0.325000X-0.450000X0.325000X-0.450000X0*%
%ADD15RoundRect,0.250000X-0.450000X0.325000X-0.450000X-0.325000X0.450000X-0.325000X0.450000X0.325000X0*%
%ADD16O,0.890000X1.550000*%
%ADD17O,1.250000X0.950000*%
%ADD18R,0.400000X1.350000*%
%ADD19R,1.200000X1.550000*%
%ADD20R,1.500000X1.550000*%
%ADD21C,1.730000*%
%ADD22FreePoly0,180.000000*%
%ADD23FreePoly0,0.000000*%
%ADD24R,0.540000X0.540000*%
%ADD25R,0.300000X0.300000*%
%ADD26R,0.900000X0.300000*%
%ADD27R,0.300000X0.900000*%
%ADD28R,0.900000X0.900000*%
%ADD29R,1.500000X0.900000*%
%ADD30R,0.900000X1.500000*%
%ADD31RoundRect,0.250000X0.450000X-0.325000X0.450000X0.325000X-0.450000X0.325000X-0.450000X-0.325000X0*%
%ADD32RoundRect,0.250000X0.450000X-0.350000X0.450000X0.350000X-0.450000X0.350000X-0.450000X-0.350000X0*%
%ADD33RoundRect,0.150000X0.825000X0.150000X-0.825000X0.150000X-0.825000X-0.150000X0.825000X-0.150000X0*%
G04 APERTURE END LIST*
D10*
X172466000Y-59668500D03*
X172466000Y-61743500D03*
D11*
X151925000Y-80000000D03*
X154000000Y-80000000D03*
D12*
X131593500Y-78232000D03*
X129518500Y-78232000D03*
D13*
X140970000Y-73660000D03*
X140970000Y-75660000D03*
D10*
X125730000Y-73363000D03*
X125730000Y-75438000D03*
D14*
X183651000Y-81534000D03*
X181601000Y-81534000D03*
X132597000Y-68834000D03*
X130547000Y-68834000D03*
D15*
X128778000Y-73397000D03*
X128778000Y-75447000D03*
D16*
X158479999Y-103885999D03*
D17*
X157479999Y-101185999D03*
X152479999Y-101185999D03*
D16*
X151479999Y-103885999D03*
D18*
X156279999Y-101185999D03*
X155629999Y-101185999D03*
X154979999Y-101185999D03*
X154329999Y-101185999D03*
X153679999Y-101185999D03*
D19*
X157879999Y-103885999D03*
D20*
X155979999Y-103885999D03*
X153979999Y-103885999D03*
D19*
X152079999Y-103885999D03*
D11*
X156925000Y-80000000D03*
X159000000Y-80000000D03*
D21*
X186182000Y-67030000D03*
D22*
X186182000Y-69830000D03*
D23*
X186182000Y-64230000D03*
D10*
X167386000Y-59668500D03*
X167386000Y-61743500D03*
D12*
X177313500Y-81534000D03*
X175238500Y-81534000D03*
D24*
X178561999Y-78369999D03*
X178561999Y-77469999D03*
X177661999Y-78369999D03*
X177661999Y-77469999D03*
D25*
X179361999Y-76669999D03*
D26*
X179661999Y-77169999D03*
X179661999Y-77669999D03*
X179661999Y-78169999D03*
X179661999Y-78669999D03*
D25*
X179361999Y-79169999D03*
D27*
X178861999Y-79469999D03*
X178361999Y-79469999D03*
X177861999Y-79469999D03*
X177361999Y-79469999D03*
D25*
X176861999Y-79169999D03*
D26*
X176561999Y-78669999D03*
X176561999Y-78169999D03*
X176561999Y-77669999D03*
X176561999Y-77169999D03*
D25*
X176861999Y-76669999D03*
D27*
X177361999Y-76369999D03*
X177861999Y-76369999D03*
X178361999Y-76369999D03*
X178861999Y-76369999D03*
D12*
X149000000Y-80000000D03*
X146925000Y-80000000D03*
D28*
X157739999Y-68579999D03*
X157739999Y-67179999D03*
X157739999Y-65779999D03*
X156339999Y-68579999D03*
X156339999Y-67179999D03*
X156339999Y-65779999D03*
X154939999Y-68579999D03*
X154939999Y-67179999D03*
X154939999Y-65779999D03*
D29*
X163589999Y-59459999D03*
X163589999Y-60729999D03*
X163589999Y-61999999D03*
X163589999Y-63269999D03*
X163589999Y-64539999D03*
X163589999Y-65809999D03*
X163589999Y-67079999D03*
X163589999Y-68349999D03*
X163589999Y-69619999D03*
X163589999Y-70889999D03*
X163589999Y-72159999D03*
X163589999Y-73429999D03*
X163589999Y-74699999D03*
X163589999Y-75969999D03*
D30*
X161824999Y-77219999D03*
X160554999Y-77219999D03*
X159284999Y-77219999D03*
X158014999Y-77219999D03*
X156744999Y-77219999D03*
X155474999Y-77219999D03*
X154204999Y-77219999D03*
X152934999Y-77219999D03*
X151664999Y-77219999D03*
X150394999Y-77219999D03*
X149124999Y-77219999D03*
X147854999Y-77219999D03*
D29*
X146089999Y-75969999D03*
X146089999Y-74699999D03*
X146089999Y-73429999D03*
X146089999Y-72159999D03*
X146089999Y-70889999D03*
X146089999Y-69619999D03*
X146089999Y-68349999D03*
X146089999Y-67079999D03*
X146089999Y-65809999D03*
X146089999Y-64539999D03*
X146089999Y-63269999D03*
X146089999Y-61999999D03*
X146089999Y-60729999D03*
X146089999Y-59459999D03*
D12*
X136144000Y-78232000D03*
X134069000Y-78232000D03*
D31*
X180340000Y-70875000D03*
X180340000Y-68825000D03*
D32*
X122682000Y-75400500D03*
X122682000Y-73400500D03*
D11*
X140673000Y-68834000D03*
X142748000Y-68834000D03*
D12*
X138727000Y-68834000D03*
X136652000Y-68834000D03*
D13*
X169926000Y-59706000D03*
X169926000Y-61706000D03*
D21*
X186182000Y-76200000D03*
D22*
X186182000Y-79000000D03*
D23*
X186182000Y-73400000D03*
D12*
X178075500Y-69088000D03*
X176000500Y-69088000D03*
D33*
X137095000Y-71755000D03*
X137095000Y-73025000D03*
X137095000Y-74295000D03*
X137095000Y-75565000D03*
X132145000Y-75565000D03*
X132145000Y-74295000D03*
X132145000Y-73025000D03*
X132145000Y-71755000D03*
D24*
X178561999Y-65669999D03*
X178561999Y-64769999D03*
X177661999Y-65669999D03*
X177661999Y-64769999D03*
D25*
X179361999Y-63969999D03*
D26*
X179661999Y-64469999D03*
X179661999Y-64969999D03*
X179661999Y-65469999D03*
X179661999Y-65969999D03*
D25*
X179361999Y-66469999D03*
D27*
X178861999Y-66769999D03*
X178361999Y-66769999D03*
X177861999Y-66769999D03*
X177361999Y-66769999D03*
D25*
X176861999Y-66469999D03*
D26*
X176561999Y-65969999D03*
X176561999Y-65469999D03*
X176561999Y-64969999D03*
X176561999Y-64469999D03*
D25*
X176861999Y-63969999D03*
D27*
X177361999Y-63669999D03*
X177861999Y-63669999D03*
X178361999Y-63669999D03*
X178861999Y-63669999D03*
M02*
