G04 #@! TF.GenerationSoftware,KiCad,Pcbnew,(7.0.0)*
G04 #@! TF.CreationDate,2023-03-05T21:40:28-06:00*
G04 #@! TF.ProjectId,Phone_Audio_FM_Transmitter,50686f6e-655f-4417-9564-696f5f464d5f,1*
G04 #@! TF.SameCoordinates,Original*
G04 #@! TF.FileFunction,Paste,Top*
G04 #@! TF.FilePolarity,Positive*
%FSLAX46Y46*%
G04 Gerber Fmt 4.6, Leading zero omitted, Abs format (unit mm)*
G04 Created by KiCad (PCBNEW (7.0.0)) date 2023-03-05 21:40:28*
%MOMM*%
%LPD*%
G01*
G04 APERTURE LIST*
G04 Aperture macros list*
%AMRoundRect*
0 Rectangle with rounded corners*
0 $1 Rounding radius*
0 $2 $3 $4 $5 $6 $7 $8 $9 X,Y pos of 4 corners*
0 Add a 4 corners polygon primitive as box body*
4,1,4,$2,$3,$4,$5,$6,$7,$8,$9,$2,$3,0*
0 Add four circle primitives for the rounded corners*
1,1,$1+$1,$2,$3*
1,1,$1+$1,$4,$5*
1,1,$1+$1,$6,$7*
1,1,$1+$1,$8,$9*
0 Add four rect primitives between the rounded corners*
20,1,$1+$1,$2,$3,$4,$5,0*
20,1,$1+$1,$4,$5,$6,$7,0*
20,1,$1+$1,$6,$7,$8,$9,0*
20,1,$1+$1,$8,$9,$2,$3,0*%
G04 Aperture macros list end*
%ADD10RoundRect,0.250000X-0.350000X-0.450000X0.350000X-0.450000X0.350000X0.450000X-0.350000X0.450000X0*%
%ADD11RoundRect,0.250000X0.350000X0.450000X-0.350000X0.450000X-0.350000X-0.450000X0.350000X-0.450000X0*%
%ADD12RoundRect,0.250000X-0.337500X-0.475000X0.337500X-0.475000X0.337500X0.475000X-0.337500X0.475000X0*%
%ADD13R,1.600000X1.400000*%
%ADD14RoundRect,0.250000X-0.325000X-0.450000X0.325000X-0.450000X0.325000X0.450000X-0.325000X0.450000X0*%
G04 APERTURE END LIST*
D10*
X115586000Y-94488000D03*
X117586000Y-94488000D03*
D11*
X189000000Y-99000000D03*
X187000000Y-99000000D03*
D12*
X180925000Y-89000000D03*
X183000000Y-89000000D03*
D11*
X189000000Y-95000000D03*
X187000000Y-95000000D03*
D10*
X144000000Y-89000000D03*
X146000000Y-89000000D03*
D12*
X151362500Y-94234000D03*
X153437500Y-94234000D03*
D10*
X158766000Y-89916000D03*
X160766000Y-89916000D03*
D13*
X176339999Y-94269999D03*
X184339999Y-94269999D03*
X176339999Y-98769999D03*
X184339999Y-98769999D03*
D10*
X154702000Y-89916000D03*
X156702000Y-89916000D03*
D13*
X125539999Y-94269999D03*
X133539999Y-94269999D03*
X125539999Y-98769999D03*
X133539999Y-98769999D03*
X140779999Y-94269999D03*
X148779999Y-94269999D03*
X140779999Y-98769999D03*
X148779999Y-98769999D03*
D12*
X171925000Y-96000000D03*
X174000000Y-96000000D03*
D10*
X149000000Y-89000000D03*
X151000000Y-89000000D03*
X120000000Y-95000000D03*
X122000000Y-95000000D03*
D14*
X116323000Y-90170000D03*
X118373000Y-90170000D03*
D10*
X120000000Y-99000000D03*
X122000000Y-99000000D03*
D12*
X128925000Y-89000000D03*
X131000000Y-89000000D03*
D13*
X161099999Y-94269999D03*
X169099999Y-94269999D03*
X161099999Y-98769999D03*
X169099999Y-98769999D03*
M02*
